<svg width="512" height="512" viewBox="0 0 512 512" fill="none" xmlns="http://www.w3.org/2000/svg">
<path d="M102 236L75.5 254.5H415.5L393 236H102Z" fill="#080807"/>
<path d="M77 455.5V322.5H417.5V455.5H77Z" fill="#FAF9F9"/>
<path d="M59 322.5V255H433V322.5H59Z" fill="#CFC9C4"/>
<path d="M137 287L156.5 281L166.5 312.5V324.5H415V338.5H350L345 357L339 362.5L317 383.5L322 395L289 420L280.5 409L266.5 414.5L263.5 429.5L213 433.5L206 409L183.5 424.5L137 379.5L126.5 341.5H79V327L121 321L123 312.5L126.5 301.5L132 294L137 287Z" fill="#A3998F" stroke="#A3998F" stroke-width="3" stroke-linejoin="round"/>
<path d="M102 236L75.5 254.5H415.5L393 236H102Z" stroke="#080807" stroke-width="10" stroke-linejoin="round"/>
<path d="M77 455.5V322.5H417.5V455.5H77Z" stroke="#080807" stroke-width="10" stroke-linejoin="round"/>
<path d="M59 322.5V255H433V322.5H59Z" stroke="#080807" stroke-width="10" stroke-linejoin="round"/>
<path d="M370.5 137L353 251.5H261L281 124L370.5 137Z" fill="#FAF9F9"/>
<path d="M266 221L288 234L299.5 228H310L324.5 236L334 247H338L355 221V251.5H321L315 240L299.5 228L288 234L280 242.5L266 236V221Z" fill="#A3998F"/>
<path d="M370.5 137L353 251.5H261L281 124L370.5 137Z" stroke="#080807" stroke-width="10" stroke-linejoin="bevel"/>
<path d="M279 139L368.5 152" stroke="#080807" stroke-width="10" stroke-linejoin="bevel"/>
<path d="M295 125.5L292.5 141.5" stroke="#080807" stroke-width="10" stroke-linejoin="bevel"/>
<path d="M355 133.5L352.5 150" stroke="#080807" stroke-width="10" stroke-linejoin="bevel"/>
<path d="M315.5 168.5L292 205.5" stroke="#080807" stroke-width="10" stroke-linejoin="bevel"/>
<path d="M342.5 177.5L319 214.5" stroke="#080807" stroke-width="10" stroke-linejoin="bevel"/>
<path d="M112 230.5L153 194.5L168 207L164 218L168 225.5L145 248H128L125 245L112 230.5Z" fill="#FAF9F9"/>
<path d="M41 156.5L41.5 129.5L46.5 146.5L53 154L63 159.5L73 158.5L82 152.5L86 145V139L84.5 132.5L68.5 113L87.5 116.5L97 125L105 139.5L104.5 162L141.5 202L119 221.5L79.5 177.5L61 176.5L49.5 170L41 156.5Z" fill="#FAF9F9"/>
<path d="M171 207L156 194.5L115 230.5L128 245M171 207L128 245M171 207L167 218L171 225.5L148 248H131L128 245" stroke="#080807" stroke-width="8" stroke-linejoin="round"/>
<path d="M41 120V141.5L54.5 146.5L47.5 127L41 120Z" fill="#080807" stroke="#080807"/>
<path d="M44 156.5L44.5 129.5L49.5 146.5L56 154L66 159.5L76 158.5L85 152.5L89 145V139L87.5 132.5L71.5 113L90.5 116.5L100 125L108 139.5L107.5 162L144.5 202L122 221.5L82.5 177.5L64 176.5L52.5 170L44 156.5Z" stroke="#080807" stroke-width="8"/>
<path d="M220 148L184 194L198.5 206.5L234.5 159.5L220 148Z" fill="#FAF9F9"/>
<path d="M168.5 211.5L184 194L199 205.5L184 226L176.5 228.5L169.5 224L166 218.5L168.5 211.5Z" fill="#FAF9F9"/>
<path d="M258 132.5L236 116L235 107.5L240 98.5L256 84L296 65L293.5 88L287.5 106L274.5 123.5L266.5 131.5L258 132.5Z" fill="#FAF9F9"/>
<path d="M224 143L235.5 115.5L257.5 131.5L237 154L224 143Z" fill="#FAF9F9"/>
<path d="M300.5 56L293.5 60.4545L300 65L300.5 56Z" fill="#080807" stroke="#080807" stroke-linejoin="bevel"/>
<path d="M220 148L184 194L198.5 206.5L234.5 159.5L220 148Z" stroke="#080807" stroke-width="10" stroke-linejoin="bevel"/>
<path d="M168.5 211.5L184 194L199 205.5L184 226L176.5 228.5L169.5 224L166 218.5L168.5 211.5Z" stroke="#080807" stroke-width="10" stroke-linejoin="bevel"/>
<path d="M257.5 132L235.5 115.5L234.5 107L239.5 98L255.5 83.5L295.5 64.5L293 87.5L287 105.5L274 123L266 131L257.5 132Z" stroke="#080807" stroke-width="10" stroke-linejoin="bevel"/>
<path d="M224 143L235.5 115.5L257.5 131.5L237 154L224 143Z" stroke="#080807" stroke-width="10" stroke-linejoin="bevel"/>
<path d="M283.5 74.5L283 78L289.5 72.5L283.5 74.5Z" fill="#080807"/>
<path d="M294 82L293 84M283 78L283.5 74.5L289.5 72.5L283 78Z" stroke="#080807" stroke-linejoin="round"/>
<path d="M290 86.5V72L287.5 83.5L283.5 93L290 86.5Z" fill="#080807" stroke="#080807" stroke-linejoin="round"/>
<path d="M245.5 105.5L248.5 90.5L235.5 103L236 115.5L253 129.5L263 131.5L276 116.5L265 119.5L266 111.5L258.5 113.5L260 105.5L251 109L254.5 101L245.5 105.5Z" fill="#080807" stroke="#080807"/>
<path d="M232 221L228 240L214.5 246L198.5 231.5L175.5 249.5L183.5 267.5L175.5 279.5H156.5L149.5 300L163.5 313.5V323L146 335.5L152.5 360.5H171L182 374.5L173.5 391.5L197 410L213.5 397.5L228 405.5L233 426H263.5L268 405.5L283 397.5L299 410L321.5 391.5L313.5 374.5L324.5 360.5L342.5 359L348 335.5L331 322V313.5L346 300L338.5 277H318.5L311 265.5L318.5 248L296 230.5L278.5 245L266.5 240L262 221H232Z" fill="#FAF9F9"/>
<ellipse cx="246.764" cy="323" rx="47.7123" ry="44.4443" transform="rotate(0.0672078 246.764 323)" fill="#73685E"/>
<ellipse cx="238.5" cy="323.5" rx="35.5" ry="39" fill="#A3998F"/>
<path d="M232 221L228 240L214.5 246L198.5 231.5L175.5 249.5L183.5 267.5L175.5 279.5H156.5L149.5 300L163.5 313.5V323L146 335.5L152.5 360.5H171L182 374.5L173.5 391.5L197 410L213.5 397.5L228 405.5L233 426H263.5L268 405.5L283 397.5L299 410L321.5 391.5L313.5 374.5L324.5 360.5L342.5 359L348 335.5L331 322V313.5L346 300L338.5 277H318.5L311 265.5L318.5 248L296 230.5L278.5 245L266.5 240L262 221H232Z" stroke="#080807" stroke-width="8" stroke-linejoin="round"/>
<path d="M246.811 282.556C271.225 282.585 290.503 300.977 290.477 323.052C290.451 345.126 271.13 363.473 246.717 363.445C222.303 363.416 203.026 345.023 203.052 322.949C203.078 300.875 222.398 282.528 246.811 282.556Z" stroke="#080807" stroke-width="8"/>
<path d="M378 97.5L395.5 84L407 85V147" stroke="#080807" stroke-width="8" stroke-linejoin="round"/>
<path d="M430 148.5L438 154L430 163.5" stroke="#080807" stroke-width="8" stroke-linejoin="round"/>
<path d="M402 180.5V208" stroke="#080807" stroke-width="8" stroke-linejoin="round"/>
<path d="M389.5 194.5H414.5" stroke="#080807" stroke-width="8" stroke-linejoin="round"/>
<path d="M457.5 377V407" stroke="#080807" stroke-width="8" stroke-linejoin="round"/>
<path d="M444 392.5H471" stroke="#080807" stroke-width="8" stroke-linejoin="round"/>
<path d="M59 196.5V223" stroke="#080807" stroke-width="8" stroke-linejoin="round"/>
<path d="M46 210.5L72 209.5" stroke="#080807" stroke-width="8" stroke-linejoin="round"/>
<path d="M147 130V81L178.5 104L147 130Z" fill="#FAF9F9" stroke="#080807" stroke-width="8" stroke-linejoin="round"/>
</svg>
