<svg width="512" height="512" viewBox="0 0 512 512" fill="none" xmlns="http://www.w3.org/2000/svg">
<g filter="url(#filter0_d_2090_6)">
<path fill-rule="evenodd" clip-rule="evenodd" d="M105.499 109.133C102.58 110.44 99.3429 111.167 95.9348 111.167C83.0551 111.167 72.614 100.78 72.614 87.9658C72.614 75.152 83.0551 64.7644 95.9348 64.7644C108.814 64.7644 119.256 75.152 119.256 87.9658C119.256 92.7168 117.82 97.1343 115.357 100.812L145.403 130.15H175.084V142.805H138.336L105.499 109.133ZM95.9348 77.4197C90.0804 77.4197 85.3345 82.1413 85.3345 87.9658C85.3345 93.7902 90.0804 98.5118 95.9348 98.5118C101.789 98.5118 106.535 93.7902 106.535 87.9658C106.535 82.1413 101.789 77.4197 95.9348 77.4197Z" fill="url(#paint0_linear_2090_6)"/>
<path fill-rule="evenodd" clip-rule="evenodd" d="M101.009 184.17C97.8413 193.242 89.1722 199.754 78.9742 199.754C66.0945 199.754 55.6535 189.367 55.6535 176.553C55.6535 163.739 66.0945 153.352 78.9742 153.352C90.1565 153.352 99.5006 161.182 101.769 171.631H175.084V184.287L101.009 184.17ZM78.9742 166.007C73.1198 166.007 68.3739 170.728 68.3739 176.553C68.3739 182.377 73.1198 187.099 78.9742 187.099C84.8286 187.099 89.5746 182.377 89.5746 176.553C89.5746 170.728 84.8286 166.007 78.9742 166.007Z" fill="url(#paint1_linear_2090_6)"/>
<path fill-rule="evenodd" clip-rule="evenodd" d="M423.866 171.272C418.671 167.017 415.358 160.569 415.358 153.352C415.358 140.538 425.8 130.15 438.679 130.15C451.559 130.15 462 140.538 462 153.352C462 166.165 451.559 176.553 438.679 176.553C437.167 176.553 435.688 176.41 434.255 176.136L435.146 176.553L409.705 202.122V317.167L384.264 342.478V362.85C394.412 365.364 401.931 374.491 401.931 385.365C401.931 398.179 391.49 408.567 378.611 408.567C365.731 408.567 355.29 398.179 355.29 385.365C355.29 375.263 361.779 366.669 370.837 363.484V337.556L396.985 312.246V196.942L423.132 170.928L423.866 171.272ZM438.679 142.805C432.825 142.805 428.079 147.527 428.079 153.352C428.079 159.176 432.825 163.898 438.679 163.898C444.534 163.898 449.28 159.176 449.28 153.352C449.28 147.527 444.534 142.805 438.679 142.805ZM368.01 385.365C368.01 379.541 372.756 374.819 378.611 374.819C384.465 374.819 389.211 379.541 389.211 385.365C389.211 391.19 384.465 395.911 378.611 395.911C372.756 395.911 368.01 391.19 368.01 385.365Z" fill="url(#paint2_linear_2090_6)"/>
</g>
<g filter="url(#filter1_d_2090_6)">
<path fill-rule="evenodd" clip-rule="evenodd" d="M389.918 51.4061H307.942L326.316 71.7952V177.959H247.166V50H166.604C166.604 50 183.564 66.1707 187.804 71.0922C192.045 76.0136 194.871 85.8567 194.871 85.8567C194.871 85.8567 197.122 323.923 194.871 334.041C192.62 344.158 187.804 348.805 187.804 348.805C187.804 348.805 180.738 357.945 170.844 361.461C160.95 364.976 148.23 362.867 143.99 361.461C139.75 360.055 135.13 358.185 130.563 354.43C126.177 350.824 124.099 348.15 121.376 343.181C118.994 338.835 117.24 334.744 117.136 331.229C117.031 327.713 117.136 254.594 117.136 254.594H50L66.9605 272.171C66.9605 272.171 66.9513 322.089 67.6672 333.338C68.2857 343.056 68.7695 344.472 70.361 349.129C70.6118 349.863 70.89 350.678 71.2007 351.618C74.4406 361.422 77.7372 366.532 83.9211 374.819C90.4353 383.549 94.8542 388.133 103.708 394.505C114.312 402.137 121.515 404.978 134.096 408.567C138.988 409.962 141.775 410.686 146.816 411.379C155.291 412.543 168.724 411.379 168.724 411.379C168.724 411.379 177.002 410.043 182.151 408.567C191.413 405.911 196.53 403.709 204.765 398.724C213.64 393.351 218.387 389.601 225.259 381.85C231.183 375.168 234.083 370.889 237.979 362.867C242.729 353.087 245.753 345.993 245.753 336.15C245.753 326.307 247.166 225.065 247.166 225.065H327.729V330.526L237.141 417.721C234.171 416.358 230.864 415.597 227.379 415.597C214.499 415.597 204.058 425.985 204.058 438.799C204.058 451.612 214.499 462 227.379 462C240.259 462 250.7 451.612 250.7 438.799C250.7 434.427 249.484 430.337 247.371 426.846L373.664 305.918V69.686L389.918 51.4061ZM216.779 438.799C216.779 432.974 221.525 428.253 227.379 428.253C233.233 428.253 237.979 432.974 237.979 438.799C237.979 444.623 233.233 449.345 227.379 449.345C221.525 449.345 216.779 444.623 216.779 438.799Z" fill="url(#paint3_linear_2090_6)"/>
</g>
<defs>
<filter id="filter0_d_2090_6" x="51.6535" y="64.7644" width="414.346" height="351.802" filterUnits="userSpaceOnUse" color-interpolation-filters="sRGB">
<feFlood flood-opacity="0" result="BackgroundImageFix"/>
<feColorMatrix in="SourceAlpha" type="matrix" values="0 0 0 0 0 0 0 0 0 0 0 0 0 0 0 0 0 0 127 0" result="hardAlpha"/>
<feOffset dy="4"/>
<feGaussianBlur stdDeviation="2"/>
<feComposite in2="hardAlpha" operator="out"/>
<feColorMatrix type="matrix" values="0 0 0 0 0 0 0 0 0 0 0 0 0 0 0 0 0 0 0.25 0"/>
<feBlend mode="normal" in2="BackgroundImageFix" result="effect1_dropShadow_2090_6"/>
<feBlend mode="normal" in="SourceGraphic" in2="effect1_dropShadow_2090_6" result="shape"/>
</filter>
<filter id="filter1_d_2090_6" x="46" y="50" width="347.918" height="420" filterUnits="userSpaceOnUse" color-interpolation-filters="sRGB">
<feFlood flood-opacity="0" result="BackgroundImageFix"/>
<feColorMatrix in="SourceAlpha" type="matrix" values="0 0 0 0 0 0 0 0 0 0 0 0 0 0 0 0 0 0 127 0" result="hardAlpha"/>
<feOffset dy="4"/>
<feGaussianBlur stdDeviation="2"/>
<feComposite in2="hardAlpha" operator="out"/>
<feColorMatrix type="matrix" values="0 0 0 0 0 0 0 0 0 0 0 0 0 0 0 0 0 0 0.25 0"/>
<feBlend mode="normal" in2="BackgroundImageFix" result="effect1_dropShadow_2090_6"/>
<feBlend mode="normal" in="SourceGraphic" in2="effect1_dropShadow_2090_6" result="shape"/>
</filter>
<linearGradient id="paint0_linear_2090_6" x1="123.849" y1="64.7644" x2="123.849" y2="142.805" gradientUnits="userSpaceOnUse">
<stop stop-color="#9DC466"/>
<stop offset="1" stop-color="#6F8A4D"/>
</linearGradient>
<linearGradient id="paint1_linear_2090_6" x1="115.369" y1="153.352" x2="115.369" y2="199.754" gradientUnits="userSpaceOnUse">
<stop stop-color="#9DC466"/>
<stop offset="1" stop-color="#6F8A4D"/>
</linearGradient>
<linearGradient id="paint2_linear_2090_6" x1="408.645" y1="130.15" x2="408.645" y2="408.567" gradientUnits="userSpaceOnUse">
<stop stop-color="#9DC466"/>
<stop offset="1" stop-color="#6F8A4D"/>
</linearGradient>
<linearGradient id="paint3_linear_2090_6" x1="374.371" y1="57.0307" x2="142.148" y2="418.792" gradientUnits="userSpaceOnUse">
<stop stop-color="#B5C5AA"/>
<stop offset="0.400309" stop-color="#9BA59C"/>
<stop offset="1" stop-color="#737A78"/>
</linearGradient>
</defs>
</svg>
