<svg width="1024" height="512" viewBox="0 0 1024 512" fill="none" xmlns="http://www.w3.org/2000/svg">
<path d="M633.676 414.848L639.628 395.968H642.428L635.052 418H632.172L624.796 395.968H627.788L633.676 414.848ZM651.744 401.152V415.872H656.496V418H643.856V415.872H649.056V403.28H644.016V401.152H651.744ZM649.6 393.264C650.197 393.264 650.672 393.445 651.024 393.808C651.387 394.171 651.568 394.613 651.568 395.136C651.568 395.68 651.387 396.139 651.024 396.512C650.672 396.875 650.197 397.056 649.6 397.056C649.035 397.056 648.571 396.875 648.208 396.512C647.845 396.139 647.664 395.68 647.664 395.136C647.664 394.613 647.845 394.171 648.208 393.808C648.571 393.445 649.035 393.264 649.6 393.264ZM664.931 416.144C666.222 416.144 667.241 415.904 667.987 415.424C668.745 414.933 669.123 414.283 669.123 413.472C669.123 412.96 669.027 412.517 668.835 412.144C668.654 411.771 668.275 411.435 667.699 411.136C667.123 410.837 666.238 410.539 665.043 410.24C663.881 409.952 662.867 409.621 662.003 409.248C661.15 408.864 660.483 408.368 660.003 407.76C659.534 407.152 659.299 406.363 659.299 405.392C659.299 404.443 659.566 403.627 660.099 402.944C660.643 402.251 661.395 401.723 662.355 401.36C663.315 400.987 664.43 400.8 665.699 400.8C667.054 400.8 668.233 400.981 669.235 401.344C670.249 401.696 671.107 402.133 671.811 402.656L670.627 404.48C669.987 404.043 669.283 403.685 668.515 403.408C667.747 403.12 666.819 402.976 665.731 402.976C664.409 402.976 663.47 403.184 662.915 403.6C662.361 404.005 662.083 404.533 662.083 405.184C662.083 405.675 662.217 406.085 662.483 406.416C662.761 406.736 663.225 407.029 663.875 407.296C664.526 407.552 665.422 407.835 666.563 408.144C667.662 408.432 668.617 408.779 669.427 409.184C670.249 409.589 670.889 410.123 671.347 410.784C671.806 411.445 672.035 412.299 672.035 413.344C672.035 414.539 671.694 415.509 671.011 416.256C670.329 416.992 669.443 417.531 668.355 417.872C667.278 418.203 666.137 418.368 664.931 418.368C663.406 418.368 662.105 418.149 661.027 417.712C659.961 417.264 659.065 416.725 658.339 416.096L659.875 414.32C660.537 414.864 661.294 415.307 662.147 415.648C663.011 415.979 663.939 416.144 664.931 416.144ZM677.879 401.152V413.088C677.879 414.197 678.108 414.997 678.567 415.488C679.026 415.979 679.74 416.224 680.711 416.224C681.639 416.224 682.514 415.963 683.335 415.44C684.167 414.907 684.812 414.277 685.271 413.552V401.152H687.959V418H685.671L685.447 415.728C684.786 416.581 683.97 417.237 682.999 417.696C682.028 418.144 681.047 418.368 680.055 418.368C678.423 418.368 677.202 417.936 676.391 417.072C675.591 416.197 675.191 414.976 675.191 413.408V401.152H677.879ZM703.242 414.32C703.242 414.992 703.354 415.483 703.578 415.792C703.802 416.101 704.149 416.331 704.618 416.48L703.962 418.368C703.237 418.272 702.602 418.043 702.058 417.68C701.514 417.307 701.12 416.747 700.874 416C700.266 416.779 699.509 417.371 698.602 417.776C697.696 418.171 696.693 418.368 695.594 418.368C693.909 418.368 692.581 417.893 691.61 416.944C690.64 415.995 690.154 414.736 690.154 413.168C690.154 411.429 690.832 410.096 692.186 409.168C693.541 408.24 695.498 407.776 698.058 407.776H700.538V406.368C700.538 405.152 700.181 404.293 699.466 403.792C698.762 403.28 697.781 403.024 696.522 403.024C695.968 403.024 695.317 403.093 694.57 403.232C693.824 403.36 693.013 403.579 692.138 403.888L691.434 401.856C692.469 401.472 693.44 401.2 694.346 401.04C695.253 400.88 696.117 400.8 696.938 400.8C699.04 400.8 700.613 401.291 701.658 402.272C702.714 403.243 703.242 404.565 703.242 406.24V414.32ZM696.282 416.32C697.114 416.32 697.909 416.112 698.666 415.696C699.424 415.269 700.048 414.683 700.538 413.936V409.6H698.106C696.25 409.6 694.938 409.92 694.17 410.56C693.413 411.2 693.034 412.059 693.034 413.136C693.034 414.181 693.301 414.976 693.834 415.52C694.378 416.053 695.194 416.32 696.282 416.32ZM713.726 394.368V413.84C713.726 414.672 713.982 415.264 714.494 415.616C715.017 415.957 715.689 416.128 716.51 416.128C717.022 416.128 717.507 416.075 717.966 415.968C718.425 415.861 718.883 415.717 719.342 415.536L720.062 417.504C719.603 417.728 719.033 417.925 718.35 418.096C717.678 418.277 716.915 418.368 716.062 418.368C714.569 418.368 713.358 417.957 712.43 417.136C711.502 416.304 711.038 415.157 711.038 413.696V396.496H705.87V394.368H713.726ZM728.882 416.144C730.172 416.144 731.191 415.904 731.938 415.424C732.695 414.933 733.074 414.283 733.074 413.472C733.074 412.96 732.978 412.517 732.786 412.144C732.604 411.771 732.226 411.435 731.65 411.136C731.074 410.837 730.188 410.539 728.994 410.24C727.831 409.952 726.818 409.621 725.954 409.248C725.1 408.864 724.434 408.368 723.954 407.76C723.484 407.152 723.25 406.363 723.25 405.392C723.25 404.443 723.516 403.627 724.049 402.944C724.594 402.251 725.346 401.723 726.306 401.36C727.266 400.987 728.38 400.8 729.65 400.8C731.004 400.8 732.183 400.981 733.186 401.344C734.199 401.696 735.058 402.133 735.762 402.656L734.578 404.48C733.938 404.043 733.234 403.685 732.466 403.408C731.698 403.12 730.77 402.976 729.682 402.976C728.359 402.976 727.42 403.184 726.866 403.6C726.311 404.005 726.034 404.533 726.034 405.184C726.034 405.675 726.167 406.085 726.434 406.416C726.711 406.736 727.175 407.029 727.826 407.296C728.476 407.552 729.372 407.835 730.514 408.144C731.612 408.432 732.567 408.779 733.378 409.184C734.199 409.589 734.839 410.123 735.298 410.784C735.756 411.445 735.986 412.299 735.986 413.344C735.986 414.539 735.644 415.509 734.962 416.256C734.279 416.992 733.394 417.531 732.306 417.872C731.228 418.203 730.087 418.368 728.882 418.368C727.356 418.368 726.055 418.149 724.978 417.712C723.911 417.264 723.015 416.725 722.289 416.096L723.826 414.32C724.487 414.864 725.244 415.307 726.098 415.648C726.962 415.979 727.89 416.144 728.882 416.144ZM760.84 395.648C761.8 395.648 762.712 395.803 763.576 396.112C764.44 396.421 765.31 397.056 766.184 398.016L764.568 399.488C764.024 398.869 763.459 398.411 762.872 398.112C762.296 397.813 761.608 397.664 760.808 397.664C759.688 397.664 758.846 397.968 758.28 398.576C757.715 399.173 757.432 399.947 757.432 400.896C757.432 401.547 757.608 402.155 757.96 402.72C758.312 403.275 758.787 403.723 759.384 404.064C759.982 404.405 760.643 404.576 761.368 404.576H770.264V406.688H767.4V415.392C767.08 415.808 766.638 416.245 766.072 416.704C765.518 417.163 764.803 417.557 763.928 417.888C763.054 418.208 761.998 418.368 760.76 418.368C759.096 418.368 757.736 418.048 756.68 417.408C755.635 416.768 754.862 415.947 754.36 414.944C753.87 413.931 753.624 412.875 753.624 411.776C753.624 410.123 754.056 408.768 754.92 407.712C755.795 406.656 757.038 405.963 758.648 405.632V405.536C757.678 405.312 756.91 404.965 756.344 404.496C755.79 404.016 755.39 403.467 755.144 402.848C754.91 402.219 754.792 401.573 754.792 400.912C754.792 399.963 755.038 399.093 755.528 398.304C756.019 397.504 756.718 396.864 757.624 396.384C758.531 395.893 759.603 395.648 760.84 395.648ZM764.952 406.688H760.984C759.875 406.688 758.974 406.949 758.28 407.472C757.587 407.984 757.075 408.624 756.744 409.392C756.424 410.149 756.264 410.912 756.264 411.68C756.264 412.448 756.419 413.179 756.728 413.872C757.048 414.565 757.539 415.125 758.2 415.552C758.872 415.979 759.747 416.192 760.824 416.192C761.72 416.192 762.52 416.048 763.224 415.76C763.939 415.461 764.515 415.04 764.952 414.496V406.688ZM798.735 402.768C798.735 401.627 798.511 400.725 798.063 400.064C797.615 399.392 797.002 398.912 796.223 398.624C795.445 398.325 794.554 398.176 793.551 398.176H790.367V407.584H793.439C794.474 407.584 795.386 407.445 796.175 407.168C796.965 406.88 797.589 406.389 798.047 405.696C798.506 404.992 798.735 404.016 798.735 402.768ZM801.711 402.736C801.711 404.453 801.343 405.829 800.607 406.864C799.882 407.899 798.879 408.651 797.599 409.12C796.319 409.589 794.847 409.824 793.183 409.824H790.367V418H787.583V395.968H793.215C795.839 395.968 797.909 396.523 799.423 397.632C800.949 398.731 801.711 400.432 801.711 402.736ZM815.155 414.32C815.155 414.992 815.267 415.483 815.491 415.792C815.715 416.101 816.062 416.331 816.531 416.48L815.875 418.368C815.15 418.272 814.515 418.043 813.971 417.68C813.427 417.307 813.032 416.747 812.787 416C812.179 416.779 811.422 417.371 810.515 417.776C809.608 418.171 808.606 418.368 807.507 418.368C805.822 418.368 804.494 417.893 803.523 416.944C802.552 415.995 802.067 414.736 802.067 413.168C802.067 411.429 802.744 410.096 804.099 409.168C805.454 408.24 807.411 407.776 809.971 407.776H812.451V406.368C812.451 405.152 812.094 404.293 811.379 403.792C810.675 403.28 809.694 403.024 808.435 403.024C807.88 403.024 807.23 403.093 806.483 403.232C805.736 403.36 804.926 403.579 804.051 403.888L803.347 401.856C804.382 401.472 805.352 401.2 806.259 401.04C807.166 400.88 808.03 400.8 808.851 400.8C810.952 400.8 812.526 401.291 813.571 402.272C814.627 403.243 815.155 404.565 815.155 406.24V414.32ZM808.195 416.32C809.027 416.32 809.822 416.112 810.579 415.696C811.336 415.269 811.96 414.683 812.451 413.936V409.6H810.019C808.163 409.6 806.851 409.92 806.083 410.56C805.326 411.2 804.947 412.059 804.947 413.136C804.947 414.181 805.214 414.976 805.747 415.52C806.291 416.053 807.107 416.32 808.195 416.32ZM825.639 394.368V413.84C825.639 414.672 825.895 415.264 826.407 415.616C826.929 415.957 827.601 416.128 828.423 416.128C828.935 416.128 829.42 416.075 829.879 415.968C830.337 415.861 830.796 415.717 831.255 415.536L831.975 417.504C831.516 417.728 830.945 417.925 830.263 418.096C829.591 418.277 828.828 418.368 827.975 418.368C826.481 418.368 825.271 417.957 824.343 417.136C823.415 416.304 822.951 415.157 822.951 413.696V396.496H817.783V394.368H825.639ZM837.178 410.528C837.231 411.829 837.482 412.896 837.93 413.728C838.378 414.549 838.97 415.157 839.706 415.552C840.442 415.936 841.242 416.128 842.106 416.128C842.97 416.128 843.749 416 844.442 415.744C845.146 415.488 845.866 415.109 846.602 414.608L847.866 416.384C847.077 417.003 846.175 417.488 845.162 417.84C844.159 418.192 843.13 418.368 842.074 418.368C840.442 418.368 839.05 418 837.898 417.264C836.746 416.528 835.866 415.504 835.258 414.192C834.661 412.869 834.362 411.339 834.362 409.6C834.362 407.893 834.666 406.379 835.274 405.056C835.882 403.733 836.735 402.693 837.834 401.936C838.933 401.179 840.229 400.8 841.722 400.8C843.141 400.8 844.362 401.136 845.386 401.808C846.41 402.469 847.194 403.419 847.738 404.656C848.293 405.883 848.57 407.349 848.57 409.056C848.57 409.344 848.565 409.616 848.554 409.872C848.543 410.117 848.527 410.336 848.506 410.528H837.178ZM841.754 403.008C840.506 403.008 839.461 403.451 838.618 404.336C837.786 405.221 837.311 406.592 837.194 408.448H845.978C845.946 406.645 845.551 405.291 844.794 404.384C844.037 403.467 843.023 403.008 841.754 403.008ZM864.429 417.152C863.853 417.536 863.155 417.835 862.333 418.048C861.512 418.261 860.707 418.368 859.917 418.368C858.104 418.368 856.707 417.893 855.725 416.944C854.744 415.995 854.253 414.773 854.253 413.28V403.232H850.381V401.152H854.253V397.328L856.941 397.008V401.152H862.765L862.445 403.232H856.941V413.248C856.941 414.187 857.187 414.901 857.677 415.392C858.179 415.883 859.005 416.128 860.157 416.128C860.787 416.128 861.368 416.053 861.901 415.904C862.435 415.755 862.931 415.563 863.389 415.328L864.429 417.152ZM880.417 417.152C879.841 417.536 879.142 417.835 878.321 418.048C877.5 418.261 876.694 418.368 875.905 418.368C874.092 418.368 872.694 417.893 871.713 416.944C870.732 415.995 870.241 414.773 870.241 413.28V403.232H866.369V401.152H870.241V397.328L872.929 397.008V401.152H878.753L878.433 403.232H872.929V413.248C872.929 414.187 873.174 414.901 873.665 415.392C874.166 415.883 874.993 416.128 876.145 416.128C876.774 416.128 877.356 416.053 877.889 415.904C878.422 415.755 878.918 415.563 879.377 415.328L880.417 417.152ZM885.141 410.528C885.194 411.829 885.445 412.896 885.893 413.728C886.341 414.549 886.933 415.157 887.669 415.552C888.405 415.936 889.205 416.128 890.069 416.128C890.933 416.128 891.711 416 892.405 415.744C893.109 415.488 893.829 415.109 894.565 414.608L895.829 416.384C895.039 417.003 894.138 417.488 893.125 417.84C892.122 418.192 891.093 418.368 890.037 418.368C888.405 418.368 887.013 418 885.861 417.264C884.709 416.528 883.829 415.504 883.221 414.192C882.623 412.869 882.325 411.339 882.325 409.6C882.325 407.893 882.629 406.379 883.237 405.056C883.845 403.733 884.698 402.693 885.797 401.936C886.895 401.179 888.191 400.8 889.685 400.8C891.103 400.8 892.325 401.136 893.349 401.808C894.373 402.469 895.157 403.419 895.701 404.656C896.255 405.883 896.533 407.349 896.533 409.056C896.533 409.344 896.527 409.616 896.517 409.872C896.506 410.117 896.49 410.336 896.469 410.528H885.141ZM889.717 403.008C888.469 403.008 887.423 403.451 886.581 404.336C885.749 405.221 885.274 406.592 885.157 408.448H893.941C893.909 406.645 893.514 405.291 892.757 404.384C891.999 403.467 890.986 403.008 889.717 403.008ZM904.744 416.144C906.035 416.144 907.053 415.904 907.8 415.424C908.557 414.933 908.936 414.283 908.936 413.472C908.936 412.96 908.84 412.517 908.648 412.144C908.467 411.771 908.088 411.435 907.512 411.136C906.936 410.837 906.051 410.539 904.856 410.24C903.693 409.952 902.68 409.621 901.816 409.248C900.963 408.864 900.296 408.368 899.816 407.76C899.347 407.152 899.112 406.363 899.112 405.392C899.112 404.443 899.379 403.627 899.912 402.944C900.456 402.251 901.208 401.723 902.168 401.36C903.128 400.987 904.243 400.8 905.512 400.8C906.867 400.8 908.045 400.981 909.048 401.344C910.061 401.696 910.92 402.133 911.624 402.656L910.44 404.48C909.8 404.043 909.096 403.685 908.328 403.408C907.56 403.12 906.632 402.976 905.544 402.976C904.221 402.976 903.283 403.184 902.728 403.6C902.173 404.005 901.896 404.533 901.896 405.184C901.896 405.675 902.029 406.085 902.296 406.416C902.573 406.736 903.037 407.029 903.688 407.296C904.339 407.552 905.235 407.835 906.376 408.144C907.475 408.432 908.429 408.779 909.24 409.184C910.061 409.589 910.701 410.123 911.16 410.784C911.619 411.445 911.848 412.299 911.848 413.344C911.848 414.539 911.507 415.509 910.824 416.256C910.141 416.992 909.256 417.531 908.168 417.872C907.091 418.203 905.949 418.368 904.744 418.368C903.219 418.368 901.917 418.149 900.84 417.712C899.773 417.264 898.877 416.725 898.152 416.096L899.688 414.32C900.349 414.864 901.107 415.307 901.96 415.648C902.824 415.979 903.752 416.144 904.744 416.144Z" fill="#FF9F43"/>
<path d="M670.141 270H652.805L652.914 257.203H670.141C674.443 257.203 678.07 256.237 681.023 254.305C683.977 252.336 686.201 249.474 687.695 245.719C689.227 241.964 689.992 237.424 689.992 232.102V228.219C689.992 224.135 689.555 220.544 688.68 217.445C687.841 214.346 686.583 211.74 684.906 209.625C683.229 207.51 681.169 205.924 678.727 204.867C676.284 203.773 673.477 203.227 670.305 203.227H652.477V190.375H670.305C675.628 190.375 680.495 191.286 684.906 193.109C689.354 194.896 693.201 197.466 696.445 200.82C699.69 204.174 702.188 208.185 703.938 212.852C705.724 217.482 706.617 222.641 706.617 228.328V232.102C706.617 237.753 705.724 242.911 703.938 247.578C702.188 252.245 699.69 256.255 696.445 259.609C693.237 262.927 689.391 265.497 684.906 267.32C680.458 269.107 675.536 270 670.141 270ZM662.102 190.375V270H645.695V190.375H662.102ZM744.789 271.094C740.195 271.094 736.076 270.365 732.43 268.906C728.784 267.411 725.685 265.352 723.133 262.727C720.617 260.102 718.685 257.057 717.336 253.594C715.987 250.094 715.312 246.375 715.312 242.438V240.25C715.312 235.766 715.951 231.664 717.227 227.945C718.503 224.227 720.326 221 722.695 218.266C725.102 215.531 728.018 213.435 731.445 211.977C734.872 210.482 738.737 209.734 743.039 209.734C747.232 209.734 750.951 210.427 754.195 211.812C757.44 213.198 760.156 215.167 762.344 217.719C764.568 220.271 766.245 223.333 767.375 226.906C768.505 230.443 769.07 234.38 769.07 238.719V245.281H722.039V234.781H753.594V233.578C753.594 231.391 753.193 229.44 752.391 227.727C751.625 225.977 750.458 224.591 748.891 223.57C747.323 222.549 745.318 222.039 742.875 222.039C740.797 222.039 739.01 222.495 737.516 223.406C736.021 224.318 734.799 225.594 733.852 227.234C732.94 228.875 732.247 230.807 731.773 233.031C731.336 235.219 731.117 237.625 731.117 240.25V242.438C731.117 244.807 731.445 246.995 732.102 249C732.794 251.005 733.76 252.737 735 254.195C736.276 255.654 737.807 256.784 739.594 257.586C741.417 258.388 743.477 258.789 745.773 258.789C748.617 258.789 751.26 258.242 753.703 257.148C756.182 256.018 758.315 254.323 760.102 252.062L767.758 260.375C766.518 262.161 764.823 263.875 762.672 265.516C760.557 267.156 758.005 268.505 755.016 269.562C752.026 270.583 748.617 271.094 744.789 271.094ZM797.398 258.516L810.523 210.828H826.984L807.023 270H797.07L797.398 258.516ZM788.375 210.828L801.555 258.57L801.828 270H791.82L771.859 210.828H788.375ZM849.297 186V194.312C849.297 196.682 848.841 199.125 847.93 201.641C847.055 204.156 845.87 206.544 844.375 208.805C842.88 211.029 841.24 212.924 839.453 214.492L832.07 210.227C833.419 208.076 834.568 205.742 835.516 203.227C836.464 200.674 836.938 197.721 836.938 194.367V186H849.297ZM882 253.648C882 252.518 881.672 251.497 881.016 250.586C880.359 249.674 879.138 248.836 877.352 248.07C875.602 247.268 873.068 246.539 869.75 245.883C866.76 245.227 863.971 244.406 861.383 243.422C858.831 242.401 856.607 241.18 854.711 239.758C852.852 238.336 851.393 236.659 850.336 234.727C849.279 232.758 848.75 230.516 848.75 228C848.75 225.521 849.279 223.188 850.336 221C851.43 218.812 852.979 216.88 854.984 215.203C857.026 213.49 859.505 212.159 862.422 211.211C865.375 210.227 868.693 209.734 872.375 209.734C877.516 209.734 881.927 210.555 885.609 212.195C889.328 213.836 892.172 216.096 894.141 218.977C896.146 221.82 897.148 225.065 897.148 228.711H881.398C881.398 227.18 881.07 225.812 880.414 224.609C879.794 223.37 878.81 222.404 877.461 221.711C876.148 220.982 874.435 220.617 872.32 220.617C870.57 220.617 869.057 220.927 867.781 221.547C866.505 222.13 865.521 222.932 864.828 223.953C864.172 224.938 863.844 226.031 863.844 227.234C863.844 228.146 864.026 228.966 864.391 229.695C864.792 230.388 865.43 231.026 866.305 231.609C867.18 232.193 868.31 232.74 869.695 233.25C871.117 233.724 872.867 234.161 874.945 234.562C879.211 235.438 883.021 236.586 886.375 238.008C889.729 239.393 892.391 241.289 894.359 243.695C896.328 246.065 897.312 249.182 897.312 253.047C897.312 255.672 896.729 258.078 895.562 260.266C894.396 262.453 892.719 264.367 890.531 266.008C888.344 267.612 885.719 268.87 882.656 269.781C879.63 270.656 876.221 271.094 872.43 271.094C866.924 271.094 862.258 270.109 858.43 268.141C854.638 266.172 851.758 263.674 849.789 260.648C847.857 257.586 846.891 254.451 846.891 251.242H861.82C861.893 253.393 862.44 255.125 863.461 256.438C864.518 257.75 865.849 258.698 867.453 259.281C869.094 259.865 870.862 260.156 872.758 260.156C874.799 260.156 876.495 259.883 877.844 259.336C879.193 258.753 880.214 257.987 880.906 257.039C881.635 256.055 882 254.924 882 253.648ZM640.992 292.375V372H624.641V292.375H640.992ZM665.492 292.375V305.227H600.523V292.375H665.492ZM661.828 343.016V341.867C661.828 337.529 662.448 333.536 663.688 329.891C664.927 326.208 666.732 323.018 669.102 320.32C671.471 317.622 674.388 315.526 677.852 314.031C681.315 312.5 685.289 311.734 689.773 311.734C694.258 311.734 698.25 312.5 701.75 314.031C705.25 315.526 708.185 317.622 710.555 320.32C712.961 323.018 714.784 326.208 716.023 329.891C717.263 333.536 717.883 337.529 717.883 341.867V343.016C717.883 347.318 717.263 351.31 716.023 354.992C714.784 358.638 712.961 361.828 710.555 364.562C708.185 367.26 705.268 369.357 701.805 370.852C698.341 372.346 694.367 373.094 689.883 373.094C685.398 373.094 681.406 372.346 677.906 370.852C674.443 369.357 671.508 367.26 669.102 364.562C666.732 361.828 664.927 358.638 663.688 354.992C662.448 351.31 661.828 347.318 661.828 343.016ZM677.578 341.867V343.016C677.578 345.495 677.797 347.81 678.234 349.961C678.672 352.112 679.365 354.008 680.312 355.648C681.297 357.253 682.573 358.51 684.141 359.422C685.708 360.333 687.622 360.789 689.883 360.789C692.07 360.789 693.948 360.333 695.516 359.422C697.083 358.51 698.341 357.253 699.289 355.648C700.237 354.008 700.93 352.112 701.367 349.961C701.841 347.81 702.078 345.495 702.078 343.016V341.867C702.078 339.461 701.841 337.201 701.367 335.086C700.93 332.935 700.219 331.039 699.234 329.398C698.286 327.721 697.029 326.409 695.461 325.461C693.893 324.513 691.997 324.039 689.773 324.039C687.549 324.039 685.654 324.513 684.086 325.461C682.555 326.409 681.297 327.721 680.312 329.398C679.365 331.039 678.672 332.935 678.234 335.086C677.797 337.201 677.578 339.461 677.578 341.867ZM725.047 343.016V341.867C725.047 337.529 725.667 333.536 726.906 329.891C728.146 326.208 729.951 323.018 732.32 320.32C734.69 317.622 737.607 315.526 741.07 314.031C744.534 312.5 748.508 311.734 752.992 311.734C757.477 311.734 761.469 312.5 764.969 314.031C768.469 315.526 771.404 317.622 773.773 320.32C776.18 323.018 778.003 326.208 779.242 329.891C780.482 333.536 781.102 337.529 781.102 341.867V343.016C781.102 347.318 780.482 351.31 779.242 354.992C778.003 358.638 776.18 361.828 773.773 364.562C771.404 367.26 768.487 369.357 765.023 370.852C761.56 372.346 757.586 373.094 753.102 373.094C748.617 373.094 744.625 372.346 741.125 370.852C737.661 369.357 734.727 367.26 732.32 364.562C729.951 361.828 728.146 358.638 726.906 354.992C725.667 351.31 725.047 347.318 725.047 343.016ZM740.797 341.867V343.016C740.797 345.495 741.016 347.81 741.453 349.961C741.891 352.112 742.583 354.008 743.531 355.648C744.516 357.253 745.792 358.51 747.359 359.422C748.927 360.333 750.841 360.789 753.102 360.789C755.289 360.789 757.167 360.333 758.734 359.422C760.302 358.51 761.56 357.253 762.508 355.648C763.456 354.008 764.148 352.112 764.586 349.961C765.06 347.81 765.297 345.495 765.297 343.016V341.867C765.297 339.461 765.06 337.201 764.586 335.086C764.148 332.935 763.438 331.039 762.453 329.398C761.505 327.721 760.247 326.409 758.68 325.461C757.112 324.513 755.216 324.039 752.992 324.039C750.768 324.039 748.872 324.513 747.305 325.461C745.773 326.409 744.516 327.721 743.531 329.398C742.583 331.039 741.891 332.935 741.453 335.086C741.016 337.201 740.797 339.461 740.797 341.867ZM807.406 288V372H791.602V288H807.406ZM836.172 287.945V372H820.422V287.945H836.172ZM873.469 312.828L847.766 342.141L833.984 356.086L828.242 344.711L839.18 330.82L854.547 312.828H873.469ZM857.117 372L839.617 344.656L850.5 335.141L875.273 372H857.117ZM896.875 312.828V372H881.07V312.828H896.875ZM880.086 297.406C880.086 295.109 880.888 293.214 882.492 291.719C884.096 290.224 886.247 289.477 888.945 289.477C891.607 289.477 893.74 290.224 895.344 291.719C896.984 293.214 897.805 295.109 897.805 297.406C897.805 299.703 896.984 301.599 895.344 303.094C893.74 304.589 891.607 305.336 888.945 305.336C886.247 305.336 884.096 304.589 882.492 303.094C880.888 301.599 880.086 299.703 880.086 297.406ZM938.875 312.828V323.984H904.422V312.828H938.875ZM912.953 298.227H928.703V354.172C928.703 355.885 928.922 357.198 929.359 358.109C929.833 359.021 930.526 359.659 931.438 360.023C932.349 360.352 933.497 360.516 934.883 360.516C935.867 360.516 936.742 360.479 937.508 360.406C938.31 360.297 938.984 360.188 939.531 360.078L939.586 371.672C938.237 372.109 936.779 372.456 935.211 372.711C933.643 372.966 931.911 373.094 930.016 373.094C926.552 373.094 923.526 372.529 920.938 371.398C918.385 370.232 916.417 368.372 915.031 365.82C913.646 363.268 912.953 359.914 912.953 355.758V298.227Z" fill="#FAFAF9"/>
<path d="M622.844 122.5V168H613.5V122.5H622.844ZM636.844 122.5V129.844H599.719V122.5H636.844ZM650.406 120V168H641.406V120H650.406ZM649.125 149.906H646.656C646.677 147.552 646.99 145.385 647.594 143.406C648.198 141.406 649.062 139.677 650.188 138.219C651.312 136.74 652.656 135.594 654.219 134.781C655.802 133.969 657.552 133.562 659.469 133.562C661.135 133.562 662.646 133.802 664 134.281C665.375 134.74 666.552 135.49 667.531 136.531C668.531 137.552 669.302 138.896 669.844 140.562C670.385 142.229 670.656 144.25 670.656 146.625V168H661.594V146.562C661.594 145.062 661.375 143.885 660.938 143.031C660.521 142.156 659.906 141.542 659.094 141.188C658.302 140.812 657.323 140.625 656.156 140.625C654.865 140.625 653.76 140.865 652.844 141.344C651.948 141.823 651.229 142.49 650.688 143.344C650.146 144.177 649.75 145.156 649.5 146.281C649.25 147.406 649.125 148.615 649.125 149.906ZM693.062 168.625C690.438 168.625 688.083 168.208 686 167.375C683.917 166.521 682.146 165.344 680.688 163.844C679.25 162.344 678.146 160.604 677.375 158.625C676.604 156.625 676.219 154.5 676.219 152.25V151C676.219 148.438 676.583 146.094 677.312 143.969C678.042 141.844 679.083 140 680.438 138.438C681.812 136.875 683.479 135.677 685.438 134.844C687.396 133.99 689.604 133.562 692.062 133.562C694.458 133.562 696.583 133.958 698.438 134.75C700.292 135.542 701.844 136.667 703.094 138.125C704.365 139.583 705.323 141.333 705.969 143.375C706.615 145.396 706.938 147.646 706.938 150.125V153.875H680.062V147.875H698.094V147.188C698.094 145.938 697.865 144.823 697.406 143.844C696.969 142.844 696.302 142.052 695.406 141.469C694.51 140.885 693.365 140.594 691.969 140.594C690.781 140.594 689.76 140.854 688.906 141.375C688.052 141.896 687.354 142.625 686.812 143.562C686.292 144.5 685.896 145.604 685.625 146.875C685.375 148.125 685.25 149.5 685.25 151V152.25C685.25 153.604 685.438 154.854 685.812 156C686.208 157.146 686.76 158.135 687.469 158.969C688.198 159.802 689.073 160.448 690.094 160.906C691.135 161.365 692.312 161.594 693.625 161.594C695.25 161.594 696.76 161.281 698.156 160.656C699.573 160.01 700.792 159.042 701.812 157.75L706.188 162.5C705.479 163.521 704.51 164.5 703.281 165.438C702.073 166.375 700.615 167.146 698.906 167.75C697.198 168.333 695.25 168.625 693.062 168.625Z" fill="#FF9F43"/>
<path d="M142 235L115.5 253.5H455.5L433 235H142Z" fill="#080807"/>
<path d="M117 454.5V321.5H457.5V454.5H117Z" fill="#FAF9F9"/>
<path d="M99 321.5V254H473V321.5H99Z" fill="#CFC9C4"/>
<path d="M177 286L196.5 280L206.5 311.5V323.5H455V337.5H390L385 356L379 361.5L357 382.5L362 394L329 419L320.5 408L306.5 413.5L303.5 428.5L253 432.5L246 408L223.5 423.5L177 378.5L166.5 340.5H119V326L161 320L163 311.5L166.5 300.5L172 293L177 286Z" fill="#A3998F" stroke="#A3998F" stroke-width="3" stroke-linejoin="round"/>
<path d="M142 235L115.5 253.5H455.5L433 235H142Z" stroke="#080807" stroke-width="10" stroke-linejoin="round"/>
<path d="M117 454.5V321.5H457.5V454.5H117Z" stroke="#080807" stroke-width="10" stroke-linejoin="round"/>
<path d="M99 321.5V254H473V321.5H99Z" stroke="#080807" stroke-width="10" stroke-linejoin="round"/>
<path d="M410.5 136L393 250.5H301L321 123L410.5 136Z" fill="#FAF9F9"/>
<path d="M306 220L328 233L339.5 227H350L364.5 235L374 246H378L395 220V250.5H361L355 239L339.5 227L328 233L320 241.5L306 235V220Z" fill="#A3998F"/>
<path d="M410.5 136L393 250.5H301L321 123L410.5 136Z" stroke="#080807" stroke-width="10" stroke-linejoin="bevel"/>
<path d="M319 138L408.5 151" stroke="#080807" stroke-width="10" stroke-linejoin="bevel"/>
<path d="M335 124.5L332.5 140.5" stroke="#080807" stroke-width="10" stroke-linejoin="bevel"/>
<path d="M395 132.5L392.5 149" stroke="#080807" stroke-width="10" stroke-linejoin="bevel"/>
<path d="M355.5 167.5L332 204.5" stroke="#080807" stroke-width="10" stroke-linejoin="bevel"/>
<path d="M382.5 176.5L359 213.5" stroke="#080807" stroke-width="10" stroke-linejoin="bevel"/>
<path d="M152 229.5L193 193.5L208 206L204 217L208 224.5L185 247H168L165 244L152 229.5Z" fill="#FAF9F9"/>
<path d="M81 155.5L81.5 128.5L86.5 145.5L93 153L103 158.5L113 157.5L122 151.5L126 144V138L124.5 131.5L108.5 112L127.5 115.5L137 124L145 138.5L144.5 161L181.5 201L159 220.5L119.5 176.5L101 175.5L89.5 169L81 155.5Z" fill="#FAF9F9"/>
<path d="M211 206L196 193.5L155 229.5L168 244M211 206L168 244M211 206L207 217L211 224.5L188 247H171L168 244" stroke="#080807" stroke-width="8" stroke-linejoin="round"/>
<path d="M81 119V140.5L94.5 145.5L87.5 126L81 119Z" fill="#080807" stroke="#080807"/>
<path d="M84 155.5L84.5 128.5L89.5 145.5L96 153L106 158.5L116 157.5L125 151.5L129 144V138L127.5 131.5L111.5 112L130.5 115.5L140 124L148 138.5L147.5 161L184.5 201L162 220.5L122.5 176.5L104 175.5L92.5 169L84 155.5Z" stroke="#080807" stroke-width="8"/>
<path d="M260 147L224 193L238.5 205.5L274.5 158.5L260 147Z" fill="#FAF9F9"/>
<path d="M208.5 210.5L224 193L239 204.5L224 225L216.5 227.5L209.5 223L206 217.5L208.5 210.5Z" fill="#FAF9F9"/>
<path d="M298 131.5L276 115L275 106.5L280 97.5L296 83L336 64L333.5 87L327.5 105L314.5 122.5L306.5 130.5L298 131.5Z" fill="#FAF9F9"/>
<path d="M264 142L275.5 114.5L297.5 130.5L277 153L264 142Z" fill="#FAF9F9"/>
<path d="M340.5 55L333.5 59.4545L340 64L340.5 55Z" fill="#080807" stroke="#080807" stroke-linejoin="bevel"/>
<path d="M260 147L224 193L238.5 205.5L274.5 158.5L260 147Z" stroke="#080807" stroke-width="10" stroke-linejoin="bevel"/>
<path d="M208.5 210.5L224 193L239 204.5L224 225L216.5 227.5L209.5 223L206 217.5L208.5 210.5Z" stroke="#080807" stroke-width="10" stroke-linejoin="bevel"/>
<path d="M297.5 131L275.5 114.5L274.5 106L279.5 97L295.5 82.5L335.5 63.5L333 86.5L327 104.5L314 122L306 130L297.5 131Z" stroke="#080807" stroke-width="10" stroke-linejoin="bevel"/>
<path d="M264 142L275.5 114.5L297.5 130.5L277 153L264 142Z" stroke="#080807" stroke-width="10" stroke-linejoin="bevel"/>
<path d="M323.5 73.5L323 77L329.5 71.5L323.5 73.5Z" fill="#080807"/>
<path d="M334 81L333 83M323 77L323.5 73.5L329.5 71.5L323 77Z" stroke="#080807" stroke-linejoin="round"/>
<path d="M330 85.5V71L327.5 82.5L323.5 92L330 85.5Z" fill="#080807" stroke="#080807" stroke-linejoin="round"/>
<path d="M285.5 104.5L288.5 89.5L275.5 102L276 114.5L293 128.5L303 130.5L316 115.5L305 118.5L306 110.5L298.5 112.5L300 104.5L291 108L294.5 100L285.5 104.5Z" fill="#080807" stroke="#080807"/>
<path d="M272 220L268 239L254.5 245L238.5 230.5L215.5 248.5L223.5 266.5L215.5 278.5H196.5L189.5 299L203.5 312.5V322L186 334.5L192.5 359.5H211L222 373.5L213.5 390.5L237 409L253.5 396.5L268 404.5L273 425H303.5L308 404.5L323 396.5L339 409L361.5 390.5L353.5 373.5L364.5 359.5L382.5 358L388 334.5L371 321V312.5L386 299L378.5 276H358.5L351 264.5L358.5 247L336 229.5L318.5 244L306.5 239L302 220H272Z" fill="#FAF9F9"/>
<ellipse cx="286.764" cy="322" rx="47.7123" ry="44.4443" transform="rotate(0.0672078 286.764 322)" fill="#73685E"/>
<ellipse cx="278.5" cy="322.5" rx="35.5" ry="39" fill="#A3998F"/>
<path d="M272 220L268 239L254.5 245L238.5 230.5L215.5 248.5L223.5 266.5L215.5 278.5H196.5L189.5 299L203.5 312.5V322L186 334.5L192.5 359.5H211L222 373.5L213.5 390.5L237 409L253.5 396.5L268 404.5L273 425H303.5L308 404.5L323 396.5L339 409L361.5 390.5L353.5 373.5L364.5 359.5L382.5 358L388 334.5L371 321V312.5L386 299L378.5 276H358.5L351 264.5L358.5 247L336 229.5L318.5 244L306.5 239L302 220H272Z" stroke="#080807" stroke-width="8" stroke-linejoin="round"/>
<path d="M286.811 281.556C311.225 281.585 330.503 299.977 330.477 322.052C330.451 344.126 311.13 362.473 286.717 362.445C262.303 362.416 243.026 344.023 243.052 321.949C243.078 299.875 262.398 281.528 286.811 281.556Z" stroke="#080807" stroke-width="8"/>
<path d="M418 96.5L435.5 83L447 84V146" stroke="#080807" stroke-width="8" stroke-linejoin="round"/>
<path d="M470 147.5L478 153L470 162.5" stroke="#080807" stroke-width="8" stroke-linejoin="round"/>
<path d="M442 179.5V207" stroke="#080807" stroke-width="8" stroke-linejoin="round"/>
<path d="M429.5 193.5H454.5" stroke="#080807" stroke-width="8" stroke-linejoin="round"/>
<path d="M497.5 376V406" stroke="#080807" stroke-width="8" stroke-linejoin="round"/>
<path d="M484 391.5H511" stroke="#080807" stroke-width="8" stroke-linejoin="round"/>
<path d="M99 195.5V222" stroke="#080807" stroke-width="8" stroke-linejoin="round"/>
<path d="M86 209.5L112 208.5" stroke="#080807" stroke-width="8" stroke-linejoin="round"/>
<path d="M187 129V80L218.5 103L187 129Z" fill="#FAF9F9" stroke="#080807" stroke-width="8" stroke-linejoin="round"/>
</svg>
