<svg width="512" height="256" viewBox="0 0 1024 512" fill="none" xmlns="http://www.w3.org/2000/svg">
    <path
        d="M642.18 411.904C642.18 413.163 641.866 414.283 641.236 415.264C640.607 416.235 639.695 416.997 638.5 417.552C637.306 418.096 635.85 418.368 634.132 418.368C632.522 418.368 631.06 418.123 629.748 417.632C628.447 417.141 627.332 416.448 626.404 415.552L628.052 413.696C628.82 414.411 629.7 414.981 630.692 415.408C631.684 415.824 632.847 416.032 634.18 416.032C635.076 416.032 635.914 415.888 636.692 415.6C637.471 415.301 638.1 414.853 638.58 414.256C639.06 413.648 639.3 412.88 639.3 411.952C639.3 411.237 639.162 410.629 638.884 410.128C638.607 409.627 638.116 409.184 637.412 408.8C636.708 408.405 635.727 408.021 634.468 407.648C633.018 407.221 631.759 406.741 630.692 406.208C629.636 405.664 628.815 404.997 628.228 404.208C627.652 403.419 627.364 402.443 627.364 401.28C627.364 400.181 627.668 399.205 628.276 398.352C628.884 397.499 629.722 396.832 630.788 396.352C631.866 395.861 633.103 395.616 634.5 395.616C636.026 395.616 637.348 395.835 638.468 396.272C639.599 396.699 640.623 397.317 641.54 398.128L639.908 399.936C639.119 399.232 638.271 398.725 637.364 398.416C636.458 398.096 635.535 397.936 634.596 397.936C633.796 397.936 633.06 398.059 632.388 398.304C631.727 398.539 631.194 398.896 630.788 399.376C630.394 399.845 630.196 400.448 630.196 401.184C630.196 401.813 630.367 402.357 630.708 402.816C631.05 403.275 631.626 403.696 632.436 404.08C633.247 404.453 634.351 404.848 635.748 405.264C636.89 405.595 637.946 406.011 638.916 406.512C639.898 407.003 640.687 407.675 641.284 408.528C641.882 409.371 642.18 410.496 642.18 411.904ZM651.832 416.048C652.675 416.048 653.459 415.909 654.184 415.632C654.92 415.355 655.597 415.003 656.216 414.576L657.528 416.336C656.792 416.965 655.907 417.461 654.872 417.824C653.837 418.187 652.824 418.368 651.832 418.368C650.157 418.368 648.728 418.011 647.544 417.296C646.371 416.571 645.475 415.557 644.856 414.256C644.237 412.944 643.928 411.408 643.928 409.648C643.928 407.963 644.237 406.453 644.856 405.12C645.485 403.776 646.387 402.72 647.56 401.952C648.744 401.184 650.179 400.8 651.864 400.8C652.941 400.8 653.949 400.965 654.888 401.296C655.837 401.616 656.707 402.101 657.496 402.752L656.184 404.544C655.469 404.043 654.749 403.669 654.024 403.424C653.309 403.168 652.579 403.04 651.832 403.04C650.381 403.04 649.187 403.584 648.248 404.672C647.309 405.76 646.84 407.419 646.84 409.648C646.84 411.141 647.053 412.363 647.48 413.312C647.917 414.251 648.509 414.944 649.256 415.392C650.013 415.829 650.872 416.048 651.832 416.048ZM660.363 418V415.936H662.987V403.216H660.363V401.152H665.035L665.531 405.136C666.182 403.749 666.971 402.677 667.899 401.92C668.827 401.163 670.054 400.784 671.579 400.784C672.049 400.784 672.465 400.821 672.827 400.896C673.201 400.96 673.579 401.045 673.963 401.152L673.179 403.552C672.827 403.456 672.507 403.387 672.219 403.344C671.931 403.291 671.601 403.264 671.227 403.264C669.937 403.264 668.827 403.723 667.899 404.64C666.971 405.557 666.23 406.944 665.675 408.8V415.936H669.099V418H660.363ZM671.371 406.848V403.184L671.643 401.152H673.963L673.579 406.848H671.371ZM684.719 401.152V415.872H689.471V418H676.831V415.872H682.031V403.28H676.991V401.152H684.719ZM682.575 393.264C683.172 393.264 683.647 393.445 683.999 393.808C684.362 394.171 684.543 394.613 684.543 395.136C684.543 395.68 684.362 396.139 683.999 396.512C683.647 396.875 683.172 397.056 682.575 397.056C682.01 397.056 681.546 396.875 681.183 396.512C680.82 396.139 680.639 395.68 680.639 395.136C680.639 394.613 680.82 394.171 681.183 393.808C681.546 393.445 682.01 393.264 682.575 393.264ZM699.714 400.8C701.208 400.8 702.397 401.163 703.282 401.888C704.178 402.613 704.824 403.637 705.218 404.96C705.613 406.272 705.81 407.808 705.81 409.568C705.81 411.264 705.57 412.779 705.09 414.112C704.621 415.435 703.906 416.475 702.946 417.232C701.986 417.989 700.776 418.368 699.314 418.368C697.469 418.368 695.986 417.717 694.866 416.416V424.448L692.178 424.784V401.152H694.466L694.69 403.504C695.309 402.64 696.045 401.973 696.898 401.504C697.762 401.035 698.701 400.8 699.714 400.8ZM699.074 402.96C698.146 402.96 697.325 403.243 696.61 403.808C695.906 404.363 695.325 404.981 694.866 405.664V414.016C695.304 414.667 695.853 415.184 696.514 415.568C697.186 415.941 697.922 416.128 698.722 416.128C700.12 416.128 701.17 415.595 701.874 414.528C702.578 413.461 702.93 411.803 702.93 409.552C702.93 408.08 702.792 406.859 702.514 405.888C702.237 404.907 701.816 404.176 701.25 403.696C700.685 403.205 699.96 402.96 699.074 402.96ZM721.542 417.152C720.966 417.536 720.267 417.835 719.446 418.048C718.625 418.261 717.819 418.368 717.03 418.368C715.217 418.368 713.819 417.893 712.838 416.944C711.857 415.995 711.366 414.773 711.366 413.28V403.232H707.494V401.152H711.366V397.328L714.054 397.008V401.152H719.878L719.558 403.232H714.054V413.248C714.054 414.187 714.299 414.901 714.79 415.392C715.291 415.883 716.118 416.128 717.27 416.128C717.899 416.128 718.481 416.053 719.014 415.904C719.547 415.755 720.043 415.563 720.502 415.328L721.542 417.152ZM729.882 416.144C731.172 416.144 732.191 415.904 732.938 415.424C733.695 414.933 734.074 414.283 734.074 413.472C734.074 412.96 733.978 412.517 733.786 412.144C733.604 411.771 733.226 411.435 732.65 411.136C732.074 410.837 731.188 410.539 729.994 410.24C728.831 409.952 727.818 409.621 726.954 409.248C726.1 408.864 725.434 408.368 724.954 407.76C724.484 407.152 724.25 406.363 724.25 405.392C724.25 404.443 724.516 403.627 725.049 402.944C725.594 402.251 726.346 401.723 727.306 401.36C728.266 400.987 729.38 400.8 730.65 400.8C732.004 400.8 733.183 400.981 734.186 401.344C735.199 401.696 736.058 402.133 736.762 402.656L735.578 404.48C734.938 404.043 734.234 403.685 733.466 403.408C732.698 403.12 731.77 402.976 730.682 402.976C729.359 402.976 728.42 403.184 727.866 403.6C727.311 404.005 727.034 404.533 727.034 405.184C727.034 405.675 727.167 406.085 727.434 406.416C727.711 406.736 728.175 407.029 728.826 407.296C729.476 407.552 730.372 407.835 731.514 408.144C732.612 408.432 733.567 408.779 734.378 409.184C735.199 409.589 735.839 410.123 736.298 410.784C736.756 411.445 736.986 412.299 736.986 413.344C736.986 414.539 736.644 415.509 735.962 416.256C735.279 416.992 734.394 417.531 733.306 417.872C732.228 418.203 731.087 418.368 729.882 418.368C728.356 418.368 727.055 418.149 725.978 417.712C724.911 417.264 724.015 416.725 723.289 416.096L724.826 414.32C725.487 414.864 726.244 415.307 727.098 415.648C727.962 415.979 728.89 416.144 729.882 416.144ZM761.84 395.648C762.8 395.648 763.712 395.803 764.576 396.112C765.44 396.421 766.31 397.056 767.184 398.016L765.568 399.488C765.024 398.869 764.459 398.411 763.872 398.112C763.296 397.813 762.608 397.664 761.808 397.664C760.688 397.664 759.846 397.968 759.28 398.576C758.715 399.173 758.432 399.947 758.432 400.896C758.432 401.547 758.608 402.155 758.96 402.72C759.312 403.275 759.787 403.723 760.384 404.064C760.982 404.405 761.643 404.576 762.368 404.576H771.264V406.688H768.4V415.392C768.08 415.808 767.638 416.245 767.072 416.704C766.518 417.163 765.803 417.557 764.928 417.888C764.054 418.208 762.998 418.368 761.76 418.368C760.096 418.368 758.736 418.048 757.68 417.408C756.635 416.768 755.862 415.947 755.36 414.944C754.87 413.931 754.624 412.875 754.624 411.776C754.624 410.123 755.056 408.768 755.92 407.712C756.795 406.656 758.038 405.963 759.648 405.632V405.536C758.678 405.312 757.91 404.965 757.344 404.496C756.79 404.016 756.39 403.467 756.144 402.848C755.91 402.219 755.792 401.573 755.792 400.912C755.792 399.963 756.038 399.093 756.528 398.304C757.019 397.504 757.718 396.864 758.624 396.384C759.531 395.893 760.603 395.648 761.84 395.648ZM765.952 406.688H761.984C760.875 406.688 759.974 406.949 759.28 407.472C758.587 407.984 758.075 408.624 757.744 409.392C757.424 410.149 757.264 410.912 757.264 411.68C757.264 412.448 757.419 413.179 757.728 413.872C758.048 414.565 758.539 415.125 759.2 415.552C759.872 415.979 760.747 416.192 761.824 416.192C762.72 416.192 763.52 416.048 764.224 415.76C764.939 415.461 765.515 415.04 765.952 414.496V406.688ZM802.055 411.904C802.055 413.163 801.741 414.283 801.111 415.264C800.482 416.235 799.57 416.997 798.375 417.552C797.181 418.096 795.725 418.368 794.007 418.368C792.397 418.368 790.935 418.123 789.623 417.632C788.322 417.141 787.207 416.448 786.279 415.552L787.927 413.696C788.695 414.411 789.575 414.981 790.567 415.408C791.559 415.824 792.722 416.032 794.055 416.032C794.951 416.032 795.789 415.888 796.567 415.6C797.346 415.301 797.975 414.853 798.455 414.256C798.935 413.648 799.175 412.88 799.175 411.952C799.175 411.237 799.037 410.629 798.759 410.128C798.482 409.627 797.991 409.184 797.287 408.8C796.583 408.405 795.602 408.021 794.343 407.648C792.893 407.221 791.634 406.741 790.567 406.208C789.511 405.664 788.69 404.997 788.103 404.208C787.527 403.419 787.239 402.443 787.239 401.28C787.239 400.181 787.543 399.205 788.151 398.352C788.759 397.499 789.597 396.832 790.663 396.352C791.741 395.861 792.978 395.616 794.375 395.616C795.901 395.616 797.223 395.835 798.343 396.272C799.474 396.699 800.498 397.317 801.415 398.128L799.783 399.936C798.994 399.232 798.146 398.725 797.239 398.416C796.333 398.096 795.41 397.936 794.471 397.936C793.671 397.936 792.935 398.059 792.263 398.304C791.602 398.539 791.069 398.896 790.663 399.376C790.269 399.845 790.071 400.448 790.071 401.184C790.071 401.813 790.242 402.357 790.583 402.816C790.925 403.275 791.501 403.696 792.311 404.08C793.122 404.453 794.226 404.848 795.623 405.264C796.765 405.595 797.821 406.011 798.791 406.512C799.773 407.003 800.562 407.675 801.159 408.528C801.757 409.371 802.055 410.496 802.055 411.904ZM804.091 418V401.152H806.379L806.587 403.488C807.27 402.624 808.123 401.963 809.147 401.504C810.182 401.035 811.184 400.8 812.155 400.8C813.808 400.8 815.008 401.237 815.755 402.112C816.512 402.987 816.891 404.203 816.891 405.76V418H814.203V407.744C814.203 406.592 814.139 405.664 814.011 404.96C813.883 404.245 813.616 403.728 813.211 403.408C812.806 403.077 812.176 402.912 811.323 402.912C810.662 402.912 810.038 403.056 809.451 403.344C808.875 403.632 808.358 403.995 807.899 404.432C807.451 404.859 807.078 405.291 806.779 405.728V418H804.091ZM828.607 401.152V415.872H833.359V418H820.719V415.872H825.919V403.28H820.879V401.152H828.607ZM826.463 393.264C827.06 393.264 827.535 393.445 827.887 393.808C828.249 394.171 828.431 394.613 828.431 395.136C828.431 395.68 828.249 396.139 827.887 396.512C827.535 396.875 827.06 397.056 826.463 397.056C825.897 397.056 825.433 396.875 825.071 396.512C824.708 396.139 824.527 395.68 824.527 395.136C824.527 394.613 824.708 394.171 825.071 393.808C825.433 393.445 825.897 393.264 826.463 393.264ZM843.602 400.8C845.095 400.8 846.285 401.163 847.17 401.888C848.066 402.613 848.711 403.637 849.106 404.96C849.501 406.272 849.698 407.808 849.698 409.568C849.698 411.264 849.458 412.779 848.978 414.112C848.509 415.435 847.794 416.475 846.834 417.232C845.874 417.989 844.663 418.368 843.202 418.368C841.357 418.368 839.874 417.717 838.754 416.416V424.448L836.066 424.784V401.152H838.354L838.578 403.504C839.197 402.64 839.933 401.973 840.786 401.504C841.65 401.035 842.589 400.8 843.602 400.8ZM842.962 402.96C842.034 402.96 841.213 403.243 840.498 403.808C839.794 404.363 839.213 404.981 838.754 405.664V414.016C839.191 414.667 839.741 415.184 840.402 415.568C841.074 415.941 841.81 416.128 842.61 416.128C844.007 416.128 845.058 415.595 845.762 414.528C846.466 413.461 846.818 411.803 846.818 409.552C846.818 408.08 846.679 406.859 846.402 405.888C846.125 404.907 845.703 404.176 845.138 403.696C844.573 403.205 843.847 402.96 842.962 402.96ZM859.589 400.8C861.083 400.8 862.272 401.163 863.157 401.888C864.053 402.613 864.699 403.637 865.093 404.96C865.488 406.272 865.685 407.808 865.685 409.568C865.685 411.264 865.445 412.779 864.965 414.112C864.496 415.435 863.781 416.475 862.821 417.232C861.861 417.989 860.651 418.368 859.189 418.368C857.344 418.368 855.861 417.717 854.741 416.416V424.448L852.053 424.784V401.152H854.341L854.565 403.504C855.184 402.64 855.92 401.973 856.773 401.504C857.637 401.035 858.576 400.8 859.589 400.8ZM858.949 402.96C858.021 402.96 857.2 403.243 856.485 403.808C855.781 404.363 855.2 404.981 854.741 405.664V414.016C855.179 414.667 855.728 415.184 856.389 415.568C857.061 415.941 857.797 416.128 858.597 416.128C859.995 416.128 861.045 415.595 861.749 414.528C862.453 413.461 862.805 411.803 862.805 409.552C862.805 408.08 862.667 406.859 862.389 405.888C862.112 404.907 861.691 404.176 861.125 403.696C860.56 403.205 859.835 402.96 858.949 402.96ZM870.153 410.528C870.206 411.829 870.457 412.896 870.905 413.728C871.353 414.549 871.945 415.157 872.681 415.552C873.417 415.936 874.217 416.128 875.081 416.128C875.945 416.128 876.724 416 877.417 415.744C878.121 415.488 878.841 415.109 879.577 414.608L880.841 416.384C880.052 417.003 879.15 417.488 878.137 417.84C877.134 418.192 876.105 418.368 875.049 418.368C873.417 418.368 872.025 418 870.873 417.264C869.721 416.528 868.841 415.504 868.233 414.192C867.636 412.869 867.337 411.339 867.337 409.6C867.337 407.893 867.641 406.379 868.249 405.056C868.857 403.733 869.71 402.693 870.809 401.936C871.908 401.179 873.204 400.8 874.697 400.8C876.116 400.8 877.337 401.136 878.361 401.808C879.385 402.469 880.169 403.419 880.713 404.656C881.268 405.883 881.545 407.349 881.545 409.056C881.545 409.344 881.54 409.616 881.529 409.872C881.518 410.117 881.502 410.336 881.481 410.528H870.153ZM874.729 403.008C873.481 403.008 872.436 403.451 871.593 404.336C870.761 405.221 870.286 406.592 870.169 408.448H878.953C878.921 406.645 878.526 405.291 877.769 404.384C877.012 403.467 875.998 403.008 874.729 403.008ZM897.405 417.152C896.829 417.536 896.13 417.835 895.309 418.048C894.487 418.261 893.682 418.368 892.893 418.368C891.079 418.368 889.682 417.893 888.701 416.944C887.719 415.995 887.229 414.773 887.229 413.28V403.232H883.357V401.152H887.229V397.328L889.917 397.008V401.152H895.741L895.421 403.232H889.917V413.248C889.917 414.187 890.162 414.901 890.653 415.392C891.154 415.883 891.981 416.128 893.133 416.128C893.762 416.128 894.343 416.053 894.877 415.904C895.41 415.755 895.906 415.563 896.365 415.328L897.405 417.152ZM905.744 416.144C907.035 416.144 908.053 415.904 908.8 415.424C909.557 414.933 909.936 414.283 909.936 413.472C909.936 412.96 909.84 412.517 909.648 412.144C909.467 411.771 909.088 411.435 908.512 411.136C907.936 410.837 907.051 410.539 905.856 410.24C904.693 409.952 903.68 409.621 902.816 409.248C901.963 408.864 901.296 408.368 900.816 407.76C900.347 407.152 900.112 406.363 900.112 405.392C900.112 404.443 900.379 403.627 900.912 402.944C901.456 402.251 902.208 401.723 903.168 401.36C904.128 400.987 905.243 400.8 906.512 400.8C907.867 400.8 909.045 400.981 910.048 401.344C911.061 401.696 911.92 402.133 912.624 402.656L911.44 404.48C910.8 404.043 910.096 403.685 909.328 403.408C908.56 403.12 907.632 402.976 906.544 402.976C905.221 402.976 904.283 403.184 903.728 403.6C903.173 404.005 902.896 404.533 902.896 405.184C902.896 405.675 903.029 406.085 903.296 406.416C903.573 406.736 904.037 407.029 904.688 407.296C905.339 407.552 906.235 407.835 907.376 408.144C908.475 408.432 909.429 408.779 910.24 409.184C911.061 409.589 911.701 410.123 912.16 410.784C912.619 411.445 912.848 412.299 912.848 413.344C912.848 414.539 912.507 415.509 911.824 416.256C911.141 416.992 910.256 417.531 909.168 417.872C908.091 418.203 906.949 418.368 905.744 418.368C904.219 418.368 902.917 418.149 901.84 417.712C900.773 417.264 899.877 416.725 899.152 416.096L900.688 414.32C901.349 414.864 902.107 415.307 902.96 415.648C903.824 415.979 904.752 416.144 905.744 416.144Z"
        fill="#00CEC9" />
    <path
        d="M671.141 270H653.805L653.914 257.203H671.141C675.443 257.203 679.07 256.237 682.023 254.305C684.977 252.336 687.201 249.474 688.695 245.719C690.227 241.964 690.992 237.424 690.992 232.102V228.219C690.992 224.135 690.555 220.544 689.68 217.445C688.841 214.346 687.583 211.74 685.906 209.625C684.229 207.51 682.169 205.924 679.727 204.867C677.284 203.773 674.477 203.227 671.305 203.227H653.477V190.375H671.305C676.628 190.375 681.495 191.286 685.906 193.109C690.354 194.896 694.201 197.466 697.445 200.82C700.69 204.174 703.188 208.185 704.938 212.852C706.724 217.482 707.617 222.641 707.617 228.328V232.102C707.617 237.753 706.724 242.911 704.938 247.578C703.188 252.245 700.69 256.255 697.445 259.609C694.237 262.927 690.391 265.497 685.906 267.32C681.458 269.107 676.536 270 671.141 270ZM663.102 190.375V270H646.695V190.375H663.102ZM745.789 271.094C741.195 271.094 737.076 270.365 733.43 268.906C729.784 267.411 726.685 265.352 724.133 262.727C721.617 260.102 719.685 257.057 718.336 253.594C716.987 250.094 716.312 246.375 716.312 242.438V240.25C716.312 235.766 716.951 231.664 718.227 227.945C719.503 224.227 721.326 221 723.695 218.266C726.102 215.531 729.018 213.435 732.445 211.977C735.872 210.482 739.737 209.734 744.039 209.734C748.232 209.734 751.951 210.427 755.195 211.812C758.44 213.198 761.156 215.167 763.344 217.719C765.568 220.271 767.245 223.333 768.375 226.906C769.505 230.443 770.07 234.38 770.07 238.719V245.281H723.039V234.781H754.594V233.578C754.594 231.391 754.193 229.44 753.391 227.727C752.625 225.977 751.458 224.591 749.891 223.57C748.323 222.549 746.318 222.039 743.875 222.039C741.797 222.039 740.01 222.495 738.516 223.406C737.021 224.318 735.799 225.594 734.852 227.234C733.94 228.875 733.247 230.807 732.773 233.031C732.336 235.219 732.117 237.625 732.117 240.25V242.438C732.117 244.807 732.445 246.995 733.102 249C733.794 251.005 734.76 252.737 736 254.195C737.276 255.654 738.807 256.784 740.594 257.586C742.417 258.388 744.477 258.789 746.773 258.789C749.617 258.789 752.26 258.242 754.703 257.148C757.182 256.018 759.315 254.323 761.102 252.062L768.758 260.375C767.518 262.161 765.823 263.875 763.672 265.516C761.557 267.156 759.005 268.505 756.016 269.562C753.026 270.583 749.617 271.094 745.789 271.094ZM798.398 258.516L811.523 210.828H827.984L808.023 270H798.07L798.398 258.516ZM789.375 210.828L802.555 258.57L802.828 270H792.82L772.859 210.828H789.375ZM850.297 186V194.312C850.297 196.682 849.841 199.125 848.93 201.641C848.055 204.156 846.87 206.544 845.375 208.805C843.88 211.029 842.24 212.924 840.453 214.492L833.07 210.227C834.419 208.076 835.568 205.742 836.516 203.227C837.464 200.674 837.938 197.721 837.938 194.367V186H850.297ZM883 253.648C883 252.518 882.672 251.497 882.016 250.586C881.359 249.674 880.138 248.836 878.352 248.07C876.602 247.268 874.068 246.539 870.75 245.883C867.76 245.227 864.971 244.406 862.383 243.422C859.831 242.401 857.607 241.18 855.711 239.758C853.852 238.336 852.393 236.659 851.336 234.727C850.279 232.758 849.75 230.516 849.75 228C849.75 225.521 850.279 223.188 851.336 221C852.43 218.812 853.979 216.88 855.984 215.203C858.026 213.49 860.505 212.159 863.422 211.211C866.375 210.227 869.693 209.734 873.375 209.734C878.516 209.734 882.927 210.555 886.609 212.195C890.328 213.836 893.172 216.096 895.141 218.977C897.146 221.82 898.148 225.065 898.148 228.711H882.398C882.398 227.18 882.07 225.812 881.414 224.609C880.794 223.37 879.81 222.404 878.461 221.711C877.148 220.982 875.435 220.617 873.32 220.617C871.57 220.617 870.057 220.927 868.781 221.547C867.505 222.13 866.521 222.932 865.828 223.953C865.172 224.938 864.844 226.031 864.844 227.234C864.844 228.146 865.026 228.966 865.391 229.695C865.792 230.388 866.43 231.026 867.305 231.609C868.18 232.193 869.31 232.74 870.695 233.25C872.117 233.724 873.867 234.161 875.945 234.562C880.211 235.438 884.021 236.586 887.375 238.008C890.729 239.393 893.391 241.289 895.359 243.695C897.328 246.065 898.312 249.182 898.312 253.047C898.312 255.672 897.729 258.078 896.562 260.266C895.396 262.453 893.719 264.367 891.531 266.008C889.344 267.612 886.719 268.87 883.656 269.781C880.63 270.656 877.221 271.094 873.43 271.094C867.924 271.094 863.258 270.109 859.43 268.141C855.638 266.172 852.758 263.674 850.789 260.648C848.857 257.586 847.891 254.451 847.891 251.242H862.82C862.893 253.393 863.44 255.125 864.461 256.438C865.518 257.75 866.849 258.698 868.453 259.281C870.094 259.865 871.862 260.156 873.758 260.156C875.799 260.156 877.495 259.883 878.844 259.336C880.193 258.753 881.214 257.987 881.906 257.039C882.635 256.055 883 254.924 883 253.648ZM641.992 292.375V372H625.641V292.375H641.992ZM666.492 292.375V305.227H601.523V292.375H666.492ZM662.828 343.016V341.867C662.828 337.529 663.448 333.536 664.688 329.891C665.927 326.208 667.732 323.018 670.102 320.32C672.471 317.622 675.388 315.526 678.852 314.031C682.315 312.5 686.289 311.734 690.773 311.734C695.258 311.734 699.25 312.5 702.75 314.031C706.25 315.526 709.185 317.622 711.555 320.32C713.961 323.018 715.784 326.208 717.023 329.891C718.263 333.536 718.883 337.529 718.883 341.867V343.016C718.883 347.318 718.263 351.31 717.023 354.992C715.784 358.638 713.961 361.828 711.555 364.562C709.185 367.26 706.268 369.357 702.805 370.852C699.341 372.346 695.367 373.094 690.883 373.094C686.398 373.094 682.406 372.346 678.906 370.852C675.443 369.357 672.508 367.26 670.102 364.562C667.732 361.828 665.927 358.638 664.688 354.992C663.448 351.31 662.828 347.318 662.828 343.016ZM678.578 341.867V343.016C678.578 345.495 678.797 347.81 679.234 349.961C679.672 352.112 680.365 354.008 681.312 355.648C682.297 357.253 683.573 358.51 685.141 359.422C686.708 360.333 688.622 360.789 690.883 360.789C693.07 360.789 694.948 360.333 696.516 359.422C698.083 358.51 699.341 357.253 700.289 355.648C701.237 354.008 701.93 352.112 702.367 349.961C702.841 347.81 703.078 345.495 703.078 343.016V341.867C703.078 339.461 702.841 337.201 702.367 335.086C701.93 332.935 701.219 331.039 700.234 329.398C699.286 327.721 698.029 326.409 696.461 325.461C694.893 324.513 692.997 324.039 690.773 324.039C688.549 324.039 686.654 324.513 685.086 325.461C683.555 326.409 682.297 327.721 681.312 329.398C680.365 331.039 679.672 332.935 679.234 335.086C678.797 337.201 678.578 339.461 678.578 341.867ZM726.047 343.016V341.867C726.047 337.529 726.667 333.536 727.906 329.891C729.146 326.208 730.951 323.018 733.32 320.32C735.69 317.622 738.607 315.526 742.07 314.031C745.534 312.5 749.508 311.734 753.992 311.734C758.477 311.734 762.469 312.5 765.969 314.031C769.469 315.526 772.404 317.622 774.773 320.32C777.18 323.018 779.003 326.208 780.242 329.891C781.482 333.536 782.102 337.529 782.102 341.867V343.016C782.102 347.318 781.482 351.31 780.242 354.992C779.003 358.638 777.18 361.828 774.773 364.562C772.404 367.26 769.487 369.357 766.023 370.852C762.56 372.346 758.586 373.094 754.102 373.094C749.617 373.094 745.625 372.346 742.125 370.852C738.661 369.357 735.727 367.26 733.32 364.562C730.951 361.828 729.146 358.638 727.906 354.992C726.667 351.31 726.047 347.318 726.047 343.016ZM741.797 341.867V343.016C741.797 345.495 742.016 347.81 742.453 349.961C742.891 352.112 743.583 354.008 744.531 355.648C745.516 357.253 746.792 358.51 748.359 359.422C749.927 360.333 751.841 360.789 754.102 360.789C756.289 360.789 758.167 360.333 759.734 359.422C761.302 358.51 762.56 357.253 763.508 355.648C764.456 354.008 765.148 352.112 765.586 349.961C766.06 347.81 766.297 345.495 766.297 343.016V341.867C766.297 339.461 766.06 337.201 765.586 335.086C765.148 332.935 764.438 331.039 763.453 329.398C762.505 327.721 761.247 326.409 759.68 325.461C758.112 324.513 756.216 324.039 753.992 324.039C751.768 324.039 749.872 324.513 748.305 325.461C746.773 326.409 745.516 327.721 744.531 329.398C743.583 331.039 742.891 332.935 742.453 335.086C742.016 337.201 741.797 339.461 741.797 341.867ZM808.406 288V372H792.602V288H808.406ZM837.172 287.945V372H821.422V287.945H837.172ZM874.469 312.828L848.766 342.141L834.984 356.086L829.242 344.711L840.18 330.82L855.547 312.828H874.469ZM858.117 372L840.617 344.656L851.5 335.141L876.273 372H858.117ZM897.875 312.828V372H882.07V312.828H897.875ZM881.086 297.406C881.086 295.109 881.888 293.214 883.492 291.719C885.096 290.224 887.247 289.477 889.945 289.477C892.607 289.477 894.74 290.224 896.344 291.719C897.984 293.214 898.805 295.109 898.805 297.406C898.805 299.703 897.984 301.599 896.344 303.094C894.74 304.589 892.607 305.336 889.945 305.336C887.247 305.336 885.096 304.589 883.492 303.094C881.888 301.599 881.086 299.703 881.086 297.406ZM939.875 312.828V323.984H905.422V312.828H939.875ZM913.953 298.227H929.703V354.172C929.703 355.885 929.922 357.198 930.359 358.109C930.833 359.021 931.526 359.659 932.438 360.023C933.349 360.352 934.497 360.516 935.883 360.516C936.867 360.516 937.742 360.479 938.508 360.406C939.31 360.297 939.984 360.188 940.531 360.078L940.586 371.672C939.237 372.109 937.779 372.456 936.211 372.711C934.643 372.966 932.911 373.094 931.016 373.094C927.552 373.094 924.526 372.529 921.938 371.398C919.385 370.232 917.417 368.372 916.031 365.82C914.646 363.268 913.953 359.914 913.953 355.758V298.227Z"
        fill="#FAFAFA" />
    <path
        d="M623.844 122.5V168H614.5V122.5H623.844ZM637.844 122.5V129.844H600.719V122.5H637.844ZM651.406 120V168H642.406V120H651.406ZM650.125 149.906H647.656C647.677 147.552 647.99 145.385 648.594 143.406C649.198 141.406 650.062 139.677 651.188 138.219C652.312 136.74 653.656 135.594 655.219 134.781C656.802 133.969 658.552 133.562 660.469 133.562C662.135 133.562 663.646 133.802 665 134.281C666.375 134.74 667.552 135.49 668.531 136.531C669.531 137.552 670.302 138.896 670.844 140.562C671.385 142.229 671.656 144.25 671.656 146.625V168H662.594V146.562C662.594 145.062 662.375 143.885 661.938 143.031C661.521 142.156 660.906 141.542 660.094 141.188C659.302 140.812 658.323 140.625 657.156 140.625C655.865 140.625 654.76 140.865 653.844 141.344C652.948 141.823 652.229 142.49 651.688 143.344C651.146 144.177 650.75 145.156 650.5 146.281C650.25 147.406 650.125 148.615 650.125 149.906ZM694.062 168.625C691.438 168.625 689.083 168.208 687 167.375C684.917 166.521 683.146 165.344 681.688 163.844C680.25 162.344 679.146 160.604 678.375 158.625C677.604 156.625 677.219 154.5 677.219 152.25V151C677.219 148.438 677.583 146.094 678.312 143.969C679.042 141.844 680.083 140 681.438 138.438C682.812 136.875 684.479 135.677 686.438 134.844C688.396 133.99 690.604 133.562 693.062 133.562C695.458 133.562 697.583 133.958 699.438 134.75C701.292 135.542 702.844 136.667 704.094 138.125C705.365 139.583 706.323 141.333 706.969 143.375C707.615 145.396 707.938 147.646 707.938 150.125V153.875H681.062V147.875H699.094V147.188C699.094 145.938 698.865 144.823 698.406 143.844C697.969 142.844 697.302 142.052 696.406 141.469C695.51 140.885 694.365 140.594 692.969 140.594C691.781 140.594 690.76 140.854 689.906 141.375C689.052 141.896 688.354 142.625 687.812 143.562C687.292 144.5 686.896 145.604 686.625 146.875C686.375 148.125 686.25 149.5 686.25 151V152.25C686.25 153.604 686.438 154.854 686.812 156C687.208 157.146 687.76 158.135 688.469 158.969C689.198 159.802 690.073 160.448 691.094 160.906C692.135 161.365 693.312 161.594 694.625 161.594C696.25 161.594 697.76 161.281 699.156 160.656C700.573 160.01 701.792 159.042 702.812 157.75L707.188 162.5C706.479 163.521 705.51 164.5 704.281 165.438C703.073 166.375 701.615 167.146 699.906 167.75C698.198 168.333 696.25 168.625 694.062 168.625Z"
        fill="#00CEC9" />
    <path d="M143 236L116.5 254.5H456.5L434 236H143Z" fill="#FAFAFA" />
    <path d="M118 455.5V322.5H458.5V455.5H118Z" fill="#080808" />
    <path d="M100 322.5V255H474V322.5H100Z" fill="#323E3D" />
    <path
        d="M178 287L197.5 281L207.5 312.5V324.5H456V338.5H391L386 357L380 362.5L358 383.5L363 395L330 420L321.5 409L307.5 414.5L304.5 429.5L254 433.5L247 409L224.5 424.5L178 379.5L167.5 341.5H120V327L162 321L164 312.5L167.5 301.5L173 294L178 287Z"
        fill="#5E7373" stroke="#5E7373" stroke-width="3" stroke-linejoin="round" />
    <path d="M143 236L116.5 254.5H456.5L434 236H143Z" stroke="#FAFAFA" stroke-width="10" stroke-linejoin="round" />
    <path d="M118 455.5V322.5H458.5V455.5H118Z" stroke="#FAFAFA" stroke-width="10" stroke-linejoin="round" />
    <path d="M100 322.5V255H474V322.5H100Z" stroke="#FAFAFA" stroke-width="10" stroke-linejoin="round" />
    <path d="M411.5 137L394 251.5H302L322 124L411.5 137Z" fill="#080808" />
    <path
        d="M307 221L329 234L340.5 228H351L365.5 236L375 247H379L396 221V251.5H362L356 240L340.5 228L329 234L321 242.5L307 236V221Z"
        fill="#5E7373" />
    <path d="M411.5 137L394 251.5H302L322 124L411.5 137Z" stroke="#FAFAFA" stroke-width="10" stroke-linejoin="bevel" />
    <path d="M320 139L409.5 152" stroke="#FAFAFA" stroke-width="10" stroke-linejoin="bevel" />
    <path d="M336 125.5L333.5 141.5" stroke="#FAFAFA" stroke-width="10" stroke-linejoin="bevel" />
    <path d="M396 133.5L393.5 150" stroke="#FAFAFA" stroke-width="10" stroke-linejoin="bevel" />
    <path d="M356.5 168.5L333 205.5" stroke="#FAFAFA" stroke-width="10" stroke-linejoin="bevel" />
    <path d="M383.5 177.5L360 214.5" stroke="#FAFAFA" stroke-width="10" stroke-linejoin="bevel" />
    <path d="M153 230.5L194 194.5L209 207L205 218L209 225.5L186 248H169L166 245L153 230.5Z" fill="#080808" />
    <path
        d="M82 156.5L82.5 129.5L87.5 146.5L94 154L104 159.5L114 158.5L123 152.5L127 145V139L125.5 132.5L109.5 113L128.5 116.5L138 125L146 139.5L145.5 162L182.5 202L160 221.5L120.5 177.5L102 176.5L90.5 170L82 156.5Z"
        fill="#080808" />
    <path d="M212 207L197 194.5L156 230.5L169 245M212 207L169 245M212 207L208 218L212 225.5L189 248H172L169 245"
        stroke="#FAFAFA" stroke-width="8" stroke-linejoin="round" />
    <path d="M82 120V141.5L95.5 146.5L88.5 127L82 120Z" fill="#FAFAFA" stroke="#FAFAFA" />
    <path
        d="M85 156.5L85.5 129.5L90.5 146.5L97 154L107 159.5L117 158.5L126 152.5L130 145V139L128.5 132.5L112.5 113L131.5 116.5L141 125L149 139.5L148.5 162L185.5 202L163 221.5L123.5 177.5L105 176.5L93.5 170L85 156.5Z"
        stroke="#FAFAFA" stroke-width="8" />
    <path d="M261 148L225 194L239.5 206.5L275.5 159.5L261 148Z" fill="#080808" />
    <path d="M209.5 211.5L225 194L240 205.5L225 226L217.5 228.5L210.5 224L207 218.5L209.5 211.5Z" fill="#080808" />
    <path d="M299 132.5L277 116L276 107.5L281 98.5L297 84L337 65L334.5 88L328.5 106L315.5 123.5L307.5 131.5L299 132.5Z"
        fill="#080808" />
    <path d="M265 143L276.5 115.5L298.5 131.5L278 154L265 143Z" fill="#080808" />
    <path d="M341.5 56L334.5 60.4545L341 65L341.5 56Z" fill="#FAFAFA" stroke="#FAFAFA" stroke-linejoin="bevel" />
    <path d="M261 148L225 194L239.5 206.5L275.5 159.5L261 148Z" stroke="#FAFAFA" stroke-width="10"
        stroke-linejoin="bevel" />
    <path d="M209.5 211.5L225 194L240 205.5L225 226L217.5 228.5L210.5 224L207 218.5L209.5 211.5Z" stroke="#FAFAFA"
        stroke-width="10" stroke-linejoin="bevel" />
    <path
        d="M298.5 132L276.5 115.5L275.5 107L280.5 98L296.5 83.5L336.5 64.5L334 87.5L328 105.5L315 123L307 131L298.5 132Z"
        stroke="#FAFAFA" stroke-width="10" stroke-linejoin="bevel" />
    <path d="M265 143L276.5 115.5L298.5 131.5L278 154L265 143Z" stroke="#FAFAFA" stroke-width="10"
        stroke-linejoin="bevel" />
    <path d="M324.5 74.5L324 78L330.5 72.5L324.5 74.5Z" fill="#FAFAFA" />
    <path d="M335 82L334 84M324 78L324.5 74.5L330.5 72.5L324 78Z" stroke="#FAFAFA" stroke-linejoin="round" />
    <path d="M331 86.5V72L328.5 83.5L324.5 93L331 86.5Z" fill="#FAFAFA" stroke="#FAFAFA" stroke-linejoin="round" />
    <path
        d="M286.5 105.5L289.5 90.5L276.5 103L277 115.5L294 129.5L304 131.5L317 116.5L306 119.5L307 111.5L299.5 113.5L301 105.5L292 109L295.5 101L286.5 105.5Z"
        fill="#FAFAFA" stroke="#FAFAFA" />
    <path
        d="M273 221L269 240L255.5 246L239.5 231.5L216.5 249.5L224.5 267.5L216.5 279.5H197.5L190.5 300L204.5 313.5V323L187 335.5L193.5 360.5H212L223 374.5L214.5 391.5L238 410L254.5 397.5L269 405.5L274 426H304.5L309 405.5L324 397.5L340 410L362.5 391.5L354.5 374.5L365.5 360.5L383.5 359L389 335.5L372 322V313.5L387 300L379.5 277H359.5L352 265.5L359.5 248L337 230.5L319.5 245L307.5 240L303 221H273Z"
        fill="#080808" />
    <ellipse cx="287.764" cy="323" rx="47.7123" ry="44.4443" transform="rotate(0.0672078 287.764 323)" fill="#8FA3A3" />
    <ellipse cx="279.5" cy="323.5" rx="35.5" ry="39" fill="#5E7373" />
    <path
        d="M273 221L269 240L255.5 246L239.5 231.5L216.5 249.5L224.5 267.5L216.5 279.5H197.5L190.5 300L204.5 313.5V323L187 335.5L193.5 360.5H212L223 374.5L214.5 391.5L238 410L254.5 397.5L269 405.5L274 426H304.5L309 405.5L324 397.5L340 410L362.5 391.5L354.5 374.5L365.5 360.5L383.5 359L389 335.5L372 322V313.5L387 300L379.5 277H359.5L352 265.5L359.5 248L337 230.5L319.5 245L307.5 240L303 221H273Z"
        stroke="#FAFAFA" stroke-width="8" stroke-linejoin="round" />
    <path
        d="M287.811 282.556C312.225 282.585 331.503 300.977 331.477 323.052C331.451 345.126 312.13 363.473 287.717 363.445C263.303 363.416 244.026 345.023 244.052 322.949C244.078 300.875 263.398 282.528 287.811 282.556Z"
        stroke="#FAFAFA" stroke-width="8" />
    <path d="M419 97.5L436.5 84L448 85V147" stroke="#FAFAFA" stroke-width="8" stroke-linejoin="round" />
    <path d="M471 148.5L479 154L471 163.5" stroke="#FAFAFA" stroke-width="8" stroke-linejoin="round" />
    <path d="M443 180.5V208" stroke="#FAFAFA" stroke-width="8" stroke-linejoin="round" />
    <path d="M430.5 194.5H455.5" stroke="#FAFAFA" stroke-width="8" stroke-linejoin="round" />
    <path d="M498.5 377V407" stroke="#FAFAFA" stroke-width="8" stroke-linejoin="round" />
    <path d="M485 392.5H512" stroke="#FAFAFA" stroke-width="8" stroke-linejoin="round" />
    <path d="M100 196.5V223" stroke="#FAFAFA" stroke-width="8" stroke-linejoin="round" />
    <path d="M87 210.5L113 209.5" stroke="#FAFAFA" stroke-width="8" stroke-linejoin="round" />
    <path d="M188 130V81L219.5 104L188 130Z" fill="#080808" stroke="#FAFAFA" stroke-width="8" stroke-linejoin="round" />
</svg>