<svg width="24" height="24" viewBox="0 0 24 24" fill="none" xmlns="http://www.w3.org/2000/svg">
<rect width="24" height="24" rx="4" fill="#F7DF1E"/>
<path d="M5.375 12.5469V12.375C5.375 11.276 5.48958 10.2786 5.71875 9.38281C5.95312 8.48698 6.26042 7.70052 6.64062 7.02344C7.02604 6.34115 7.44531 5.77604 7.89844 5.32812C8.35156 4.88021 8.80208 4.55729 9.25 4.35938L9.67969 5.54688C9.38281 5.76562 9.09115 6.06771 8.80469 6.45312C8.51823 6.83333 8.25781 7.30208 8.02344 7.85938C7.79427 8.41146 7.60938 9.0625 7.46875 9.8125C7.32812 10.5573 7.25781 11.4062 7.25781 12.3594V12.5625C7.25781 13.5156 7.32812 14.3672 7.46875 15.1172C7.60938 15.862 7.79427 16.513 8.02344 17.0703C8.25781 17.6328 8.51823 18.1068 8.80469 18.4922C9.09115 18.8776 9.38281 19.1823 9.67969 19.4062L9.25 20.5625C8.80208 20.3646 8.35156 20.0417 7.89844 19.5938C7.44531 19.151 7.02604 18.5885 6.64062 17.9062C6.26042 17.2292 5.95312 16.4427 5.71875 15.5469C5.48958 14.6458 5.375 13.6458 5.375 12.5469ZM18.7188 12.375V12.5469C18.7188 13.6094 18.599 14.5885 18.3594 15.4844C18.1198 16.375 17.8021 17.1641 17.4062 17.8516C17.0156 18.5443 16.5859 19.1198 16.1172 19.5781C15.6536 20.0365 15.1901 20.3646 14.7266 20.5625L14.2891 19.4062C14.5859 19.1875 14.875 18.8854 15.1562 18.5C15.4427 18.1146 15.7031 17.6406 15.9375 17.0781C16.1719 16.5208 16.3568 15.8672 16.4922 15.1172C16.6328 14.3672 16.7031 13.5156 16.7031 12.5625V12.3594C16.7031 11.4062 16.6328 10.5547 16.4922 9.80469C16.3516 9.05469 16.1615 8.40104 15.9219 7.84375C15.6875 7.28125 15.4271 6.8099 15.1406 6.42969C14.8594 6.04427 14.5755 5.74219 14.2891 5.52344L14.7266 4.35938C15.1901 4.55729 15.6536 4.88802 16.1172 5.35156C16.5859 5.8099 17.0156 6.38281 17.4062 7.07031C17.8021 7.75781 18.1198 8.54948 18.3594 9.44531C18.599 10.3359 18.7188 11.3125 18.7188 12.375Z" fill="#080808"/>
</svg>
